<svg version="1.1" id="Layer_1" xmlns="http://www.w3.org/2000/svg" xmlns:xlink="http://www.w3.org/1999/xlink" x="0px" y="0px"
	 width="100%" viewBox="0 0 500 500" enable-background="new 0 0 500 500" xml:space="preserve">
<path fill="#000000" opacity="1.000000" stroke="none" 
	d="
M277.000000,501.000000 
	C184.666687,501.000000 92.833374,501.000000 1.000049,501.000000 
	C1.000033,334.333405 1.000033,167.666794 1.000016,1.000139 
	C167.666565,1.000093 334.333130,1.000093 500.999756,1.000046 
	C500.999847,167.666519 500.999847,334.333038 500.999939,500.999786 
	C426.500000,501.000000 352.000000,501.000000 277.000000,501.000000 
M29.010012,195.989975 
	C29.010012,195.989975 29.077484,195.974503 28.954205,195.440552 
	C28.647879,195.268967 28.341555,195.097397 28.004417,194.992798 
	C28.004417,194.992798 28.067835,194.955215 27.798498,194.242279 
	C21.451107,190.047424 13.822780,191.724350 10.995919,197.999374 
	C10.995919,197.999374 10.953322,197.933075 10.237309,198.206253 
	C6.746144,203.522903 7.230344,211.764587 11.269152,215.769897 
	C14.730181,219.202179 19.395603,218.779968 25.856316,214.723495 
	C27.724751,213.550369 29.848856,212.454514 31.984489,212.100998 
	C37.577789,211.175217 43.333656,211.104202 48.857796,209.916245 
	C58.339691,207.877197 67.885315,205.767838 76.004997,200.013504 
	C76.004997,200.013504 76.012611,200.082748 76.658485,200.015778 
	C77.127876,199.692184 77.597275,199.368591 78.003365,199.006592 
	C78.003365,199.006592 78.037125,199.072510 78.745560,199.016647 
	C79.815697,199.366943 80.885841,199.717224 81.990143,200.004623 
	C81.990143,200.004623 81.922211,200.027161 81.989426,200.693207 
	C82.645256,201.484802 83.301079,202.276398 83.990593,203.004868 
	C83.990593,203.004868 83.923035,203.028442 83.985306,203.692978 
	C84.638504,204.482117 85.291710,205.271255 85.996140,206.001465 
	C85.996140,206.001465 85.927505,206.038742 86.053543,206.571335 
	C86.361366,206.740219 86.669182,206.909119 86.989525,207.009857 
	C86.989525,207.009857 86.921471,207.022781 86.985359,207.688324 
	C87.638611,208.479111 88.291862,209.269882 88.997063,209.999786 
	C88.997063,209.999786 88.932053,210.046707 88.983154,210.678192 
	C88.968674,211.099869 88.954193,211.521530 88.999695,212.000000 
	C88.999695,212.000000 88.940811,211.942902 88.282410,212.164291 
	C85.496811,216.432053 82.711205,220.699814 79.991516,224.994522 
	C79.991516,224.994522 79.961243,224.930084 79.250534,225.195557 
	C77.819420,229.237762 76.473488,233.312622 74.938911,237.315170 
	C72.018921,244.931229 68.422211,252.345932 66.224625,260.158752 
	C64.937057,264.736267 63.743149,268.439667 58.992889,269.991455 
	C58.992889,269.991455 58.968689,269.926270 58.301975,269.988037 
	C57.492649,270.641632 56.683327,271.295197 55.254295,272.187408 
	C54.481552,273.441162 53.708809,274.694946 52.996273,276.000336 
	C52.996273,276.000336 52.951317,275.935211 52.213127,276.270020 
	C52.796104,278.870453 53.379082,281.470917 53.992989,284.005341 
	C53.992989,284.005341 53.928638,284.039551 53.987995,284.774200 
	C56.338356,291.093140 60.597511,293.727753 70.818550,291.012970 
	C71.541626,291.419098 72.842728,291.762665 72.894569,292.241486 
	C73.248291,295.508423 72.879745,298.909119 73.603722,302.069763 
	C75.560913,310.614197 77.941063,319.061890 80.164566,327.545074 
	C81.459724,332.486420 82.358009,337.583313 84.183723,342.321686 
	C86.762352,349.014099 89.863770,355.524170 93.062309,361.952637 
	C95.665573,367.184692 96.425415,373.555634 101.986206,377.005829 
	C101.986206,377.005829 101.916832,377.007538 101.988190,377.654022 
	C102.311562,378.125488 102.634933,378.596985 102.986107,379.004944 
	C102.986107,379.004944 102.916893,379.008911 102.986946,379.653931 
	C103.308731,380.124298 103.630516,380.594635 103.991669,381.003815 
	C103.991669,381.003815 103.923195,381.028412 104.052666,381.566895 
	C104.364220,381.737640 104.675781,381.908417 104.991364,382.009033 
	C104.991364,382.009033 104.921532,382.016876 104.990608,382.666443 
	C105.312004,383.152527 105.633400,383.638641 106.078835,384.615112 
	C106.367050,384.763031 106.655273,384.910980 106.995316,385.001831 
	C106.995316,385.001831 106.925026,385.033569 107.047913,385.563141 
	C107.352104,385.732819 107.656296,385.902496 107.997360,386.002106 
	C107.997360,386.002106 107.941086,386.057922 107.989197,386.788971 
	C111.651794,391.155823 115.239449,395.588989 119.015556,399.855408 
	C120.432472,401.456299 122.287445,402.669464 124.000000,404.000000 
	C124.000000,404.000000 123.942291,404.058228 124.147858,404.698120 
	C126.414734,406.486786 128.681610,408.275421 131.000504,410.002258 
	C131.000504,410.002258 130.938248,410.053314 131.144821,410.692383 
	C132.414261,411.484131 133.683701,412.275879 135.000534,413.002686 
	C135.000534,413.002686 134.940781,413.056183 135.162109,413.712982 
	C136.684906,414.887451 138.127823,416.187408 139.743454,417.216125 
	C150.299774,423.937347 161.582230,428.863007 174.716553,431.206055 
	C176.518539,431.812103 178.279144,432.642944 180.129974,432.983612 
	C186.652084,434.183990 193.501846,434.368500 199.670975,436.527832 
	C207.299545,439.197906 214.846512,441.147888 223.262955,441.782135 
	C224.846954,441.881775 226.430939,441.981415 228.000153,442.008820 
	C228.000153,442.008820 227.928360,442.025635 228.155426,442.685852 
	C232.783447,443.461548 237.394882,444.363312 242.044510,444.974792 
	C246.092834,445.507202 250.220154,445.480286 254.250000,446.104462 
	C266.730408,448.037689 279.119293,449.480164 291.696289,446.307495 
	C295.605835,445.321289 299.960449,445.955811 304.104797,446.075073 
	C311.842834,446.297791 319.606750,447.240265 327.300842,446.815002 
	C332.592468,446.522491 337.784576,444.428467 343.830658,443.020660 
	C345.645538,442.621155 347.460388,442.221649 349.930298,441.477417 
	C356.674927,439.320862 363.419525,437.164307 370.930939,434.997986 
	C372.104584,434.603699 373.278198,434.209381 374.784729,433.640106 
	C374.967621,433.443909 375.055969,433.211670 374.951080,432.994110 
	C374.951080,432.994110 374.989838,433.098053 375.705597,433.002777 
	C376.493011,432.682312 377.280457,432.361847 378.004456,432.013885 
	C378.004456,432.013885 378.007050,432.082977 378.657623,432.011627 
	C379.128876,431.684814 379.600098,431.357971 380.004181,431.012634 
	C380.004181,431.012634 380.000488,431.082214 380.763428,431.002350 
	C383.197968,429.683167 385.632507,428.363953 388.004272,427.009369 
	C388.004272,427.009369 388.028168,427.077301 388.694611,427.015106 
	C389.485687,426.357758 390.276764,425.700439 391.004791,425.009521 
	C391.004791,425.009521 391.027557,425.077179 391.692291,425.015045 
	C392.481476,424.361847 393.270691,423.708649 394.001526,423.003723 
	C394.001526,423.003723 394.038696,423.072357 394.568756,422.948853 
	C394.737549,422.643402 394.906372,422.337982 395.007050,422.005463 
	C395.007050,422.005463 395.045715,422.067749 395.749481,422.013458 
	C402.426178,415.560333 409.472015,409.437744 415.649780,402.537903 
	C419.766174,397.940399 422.644745,392.234680 426.009796,387.010071 
	C426.009796,387.010071 426.021362,387.078278 426.557617,386.955170 
	C426.730042,386.647766 426.902496,386.340393 427.006775,386.003082 
	C427.006775,386.003082 427.049408,386.064178 427.705963,385.845642 
	C432.493622,378.911743 437.281250,371.977814 442.004395,365.001312 
	C442.004395,365.001312 442.048889,365.064392 442.705841,364.844757 
	C443.830048,362.903839 444.954254,360.962891 446.010162,359.009857 
	C446.010162,359.009857 446.020813,359.078400 446.555908,358.954132 
	C446.728821,358.647491 446.901703,358.340820 447.006165,358.002533 
	C447.006165,358.002533 447.051483,358.062805 447.726898,357.826294 
	C450.962189,351.962769 454.708160,346.424194 455.145721,339.296326 
	C455.509796,333.365631 456.630035,327.443451 457.862030,321.611847 
	C460.445984,309.381134 463.323822,297.212494 466.012482,285.005951 
	C466.012482,285.005951 466.038605,285.070435 466.762360,284.759521 
	C467.869446,280.173004 468.976562,275.586487 470.014496,271.003387 
	C470.014496,271.003387 470.040833,271.067444 470.715973,270.815002 
	C470.756409,269.876678 470.796844,268.938324 470.984802,267.191010 
	C471.684296,263.460205 472.383820,259.729401 473.013672,256.004303 
	C473.013672,256.004303 473.034790,256.070923 473.744720,255.786743 
	C474.522888,253.197586 475.301086,250.608429 476.011475,248.006668 
	C476.011475,248.006668 476.033630,248.071976 476.726227,247.806870 
	C477.823242,245.197464 479.636932,242.655624 479.890442,239.966690 
	C480.869446,229.583389 482.335663,219.094376 481.719421,208.758087 
	C481.181976,199.744019 478.087524,190.882385 476.015045,181.120850 
	C475.903198,179.822372 475.966125,178.479538 475.649719,177.232986 
	C474.161713,171.370621 472.982574,165.381073 470.883514,159.738098 
	C469.212524,155.245773 466.372803,151.188217 464.005096,146.997650 
	C464.005096,146.997650 464.073486,146.964264 463.952850,146.432495 
	C463.647064,146.263824 463.341248,146.095154 463.007629,145.992371 
	C463.007629,145.992371 463.073517,145.964523 462.949127,145.431763 
	C462.641968,145.262405 462.334778,145.093048 462.007935,144.990997 
	C462.007935,144.990997 462.072449,144.963486 462.015350,144.252106 
	C461.023956,143.477966 460.032593,142.703812 459.007874,141.993088 
	C459.007874,141.993088 459.075531,141.969467 458.953827,141.434326 
	C458.646118,141.264389 458.338409,141.094452 458.009003,140.990967 
	C458.009003,140.990967 458.075500,140.969376 457.954468,140.434921 
	C457.647369,140.265106 457.340271,140.095276 457.008331,139.991608 
	C457.008331,139.991608 457.074432,139.966583 456.954926,139.435074 
	C456.649841,139.266144 456.344757,139.097214 456.006317,138.993759 
	C456.006317,138.993759 456.072083,138.960922 455.952667,138.431213 
	C455.648132,138.263443 455.343567,138.095688 455.001282,137.997421 
	C455.001282,137.997421 455.057892,137.942154 454.859375,137.305557 
	C453.909668,136.843872 452.959991,136.382187 452.007538,135.992172 
	C452.007538,135.992172 452.079254,135.990326 451.953247,135.445709 
	C451.640656,135.270615 451.328064,135.095505 451.009216,134.990204 
	C451.009216,134.990204 451.078827,134.982193 450.954346,134.442062 
	C450.644257,134.268799 450.334198,134.095535 450.009827,133.989929 
	C450.009827,133.989929 450.077362,133.975082 449.953796,133.439636 
	C449.646362,133.267960 449.338898,133.096283 449.008881,132.991043 
	C449.008881,132.991043 449.075348,132.968475 448.953430,132.437805 
	C448.648865,132.267868 448.344299,132.097931 448.001129,131.997406 
	C448.001129,131.997406 448.057526,131.941544 447.853943,131.302887 
	C446.119293,129.579666 444.400726,127.839844 442.646637,126.136589 
	C438.793854,122.395477 434.923126,118.672867 431.000000,114.999084 
	C431.000000,114.999084 431.066528,114.951141 431.014374,114.242096 
	C430.359009,113.805771 429.703674,113.369453 429.004761,112.995247 
	C429.004761,112.995247 429.072693,112.961517 428.950500,112.432640 
	C428.646210,112.264091 428.341949,112.095543 428.007172,111.992874 
	C428.007172,111.992874 428.073120,111.962524 427.947571,111.433067 
	C427.642395,111.263626 427.337219,111.094193 427.008789,110.991150 
	C427.008789,110.991150 427.075134,110.967712 426.949463,110.436501 
	C426.643768,110.265961 426.338043,110.095421 426.008728,109.991226 
	C426.008728,109.991226 426.075043,109.967514 425.948486,109.434723 
	C425.641357,109.264244 425.334229,109.093758 425.009705,108.990318 
	C425.009705,108.990318 425.076813,108.973099 424.952118,108.437103 
	C424.643768,108.265800 424.335449,108.094498 424.009705,107.990265 
	C424.009705,107.990265 424.076813,107.972923 423.952179,107.436920 
	C423.643829,107.265678 423.335449,107.094437 423.007874,106.990654 
	C423.007874,106.990654 423.072540,106.963455 423.014679,106.268776 
	C421.363800,104.494469 419.712952,102.720161 418.001221,100.998940 
	C418.001221,100.998940 418.071747,100.959656 417.950684,100.432098 
	C417.647278,100.264175 417.343842,100.096252 417.006073,99.993927 
	C417.006073,99.993927 417.071838,99.959839 416.950775,99.432121 
	C416.647278,99.264160 416.343781,99.096199 416.005951,98.993958 
	C416.005951,98.993958 416.071594,98.959427 415.950043,98.430977 
	C415.645844,98.263008 415.341614,98.095039 415.007050,97.992920 
	C415.007050,97.992920 415.072754,97.962273 414.951141,97.432854 
	C414.646637,97.264305 414.342133,97.095757 414.007202,96.992928 
	C414.007202,96.992928 414.073151,96.962997 413.952209,96.434654 
	C413.648712,96.266113 413.345184,96.097572 413.001221,95.999352 
	C413.001221,95.999352 413.053680,95.937378 412.849152,95.296906 
	C411.245361,94.173912 409.641541,93.050919 408.008698,91.992371 
	C408.008698,91.992371 408.076019,91.970734 407.953094,91.437920 
	C407.647095,91.267281 407.341125,91.096642 407.002258,90.994644 
	C407.002258,90.994644 407.061829,90.947304 406.861969,90.313225 
	C405.918213,89.850105 404.974487,89.386986 404.003174,88.991852 
	C404.003174,88.991852 404.064697,88.951927 403.864410,88.331848 
	C403.240875,88.194061 402.617310,88.056274 402.001007,87.995354 
	C402.001007,87.995354 402.077728,87.987015 401.958679,87.443802 
	C401.647888,87.270340 401.337128,87.096886 401.005432,86.990929 
	C401.005432,86.990929 401.067993,86.958046 400.869965,86.319672 
	C399.922577,85.854279 398.975189,85.388885 398.004608,84.990700 
	C398.004608,84.990700 398.067566,84.957619 397.848724,84.293053 
	C396.244171,83.504005 394.639587,82.714958 393.002319,81.993073 
	C393.002319,81.993073 393.064484,81.951599 392.831512,81.273071 
	C387.553101,79.154617 382.274658,77.036163 377.004059,74.988724 
	C377.004059,74.988724 377.074158,74.974960 376.744690,74.227989 
	C369.485474,74.114037 362.226227,74.000076 354.049927,73.988991 
	C347.812073,74.333237 341.666931,74.140846 335.742798,70.211418 
	C324.771210,65.554749 313.267120,63.249413 301.407776,63.037647 
	C288.452240,62.806305 275.489227,62.962250 262.529755,63.014290 
	C260.920929,63.020748 259.308441,63.392220 257.706635,63.650234 
	C250.876450,64.750420 243.949707,65.457169 237.243195,67.074547 
	C224.737717,70.090424 212.361008,73.640259 199.998474,76.988434 
	C199.998474,76.988434 200.011871,76.918900 199.124939,76.997589 
	C183.081070,77.388672 167.037186,77.779755 150.154556,78.015129 
	C144.957855,78.707130 139.732208,79.243095 134.584122,80.197342 
	C133.243347,80.445862 132.144363,81.998795 130.998077,82.994514 
	C130.998077,82.994514 130.958221,82.929443 130.282257,82.986267 
	C129.167175,83.973839 128.052078,84.961418 126.999649,85.996590 
	C126.999649,85.996590 126.953163,85.933006 126.237053,85.987732 
	C118.791725,90.990692 111.236710,95.840942 103.954887,101.071526 
	C101.029526,103.172821 97.988304,105.710670 96.286705,108.766434 
	C94.161682,112.582596 93.668129,117.267754 91.926727,121.345665 
	C88.813805,128.635315 85.294052,135.751236 82.000000,143.000000 
	C82.000000,143.000000 81.942024,142.942230 81.283401,143.164963 
	C80.498009,144.763962 79.712616,146.362946 78.994812,147.999237 
	C78.994812,147.999237 78.946625,147.938965 78.331329,148.136520 
	C78.193123,148.754410 78.054916,149.372299 77.986107,149.995346 
	C77.986107,149.995346 77.955742,149.932709 77.286339,150.162766 
	C72.830116,155.725479 69.425201,161.963943 69.193542,169.085007 
	C69.032509,174.034821 67.051788,179.502457 70.987999,184.007584 
	C70.987999,184.007584 70.919800,184.018616 70.982109,184.808746 
	C70.584732,185.877167 70.492737,187.528168 69.741669,187.921875 
	C63.717331,191.079834 57.667526,194.231720 51.419838,196.904724 
	C47.809956,198.449188 43.819504,199.104126 39.164021,200.001221 
	C35.595825,200.543045 32.480141,199.740646 30.008764,196.994034 
	C30.008764,196.994034 30.075758,196.969009 29.950357,196.434052 
	C29.642061,196.263535 29.333765,196.093018 29.010012,195.989975 
z"/>
<path fill="#FEDC2B" opacity="1.000000" stroke="none" 
	d="
M222.909256,441.069183 
	C214.846512,441.147888 207.299545,439.197906 199.670975,436.527832 
	C193.501846,434.368500 186.652084,434.183990 180.129974,432.983612 
	C178.279144,432.642944 176.518539,431.812103 174.213318,430.704163 
	C173.141144,429.873474 172.610657,429.398529 171.997665,429.237366 
	C159.749741,426.017517 148.247696,421.190308 137.921692,413.730286 
	C137.162170,413.181519 135.945129,413.266083 134.940781,413.056183 
	C134.940781,413.056183 135.000534,413.002686 135.176361,412.686951 
	C133.880875,411.598572 132.409561,410.825958 130.938232,410.053345 
	C130.938248,410.053314 131.000504,410.002258 131.194244,409.715271 
	C128.906097,407.638275 126.424194,405.848267 123.942291,404.058228 
	C123.942291,404.058228 124.000000,404.000000 124.226784,403.727631 
	C121.301125,399.304535 118.366196,394.959900 114.908798,391.081024 
	C113.048843,388.994324 110.292793,387.706329 107.941078,386.057922 
	C107.941086,386.057922 107.997360,386.002106 108.128616,385.669281 
	C107.814934,385.235474 107.369980,385.134521 106.925026,385.033569 
	C106.925026,385.033569 106.995316,385.001831 107.208649,384.743225 
	C106.976761,383.916687 106.531532,383.348816 105.981300,382.533752 
	C105.558037,382.196686 105.239784,382.106781 104.921532,382.016876 
	C104.921532,382.016876 104.991364,382.009033 105.007050,381.701050 
	C104.656227,381.271484 104.289711,381.149963 103.923195,381.028412 
	C103.923195,381.028412 103.991669,381.003815 104.177597,380.704010 
	C103.881310,379.939117 103.399101,379.474030 102.916885,379.008911 
	C102.916893,379.008911 102.986107,379.004944 103.143745,378.699371 
	C102.839867,377.931732 102.378342,377.469635 101.916824,377.007538 
	C101.916832,377.007538 101.986206,377.005829 102.122375,376.679321 
	C101.880211,375.433960 101.535095,374.499786 101.118484,373.598602 
	C95.711281,361.902435 89.916031,350.366180 85.025085,338.458374 
	C82.223701,331.637878 80.386787,324.310150 79.012665,317.041229 
	C77.076820,306.800842 75.972794,296.403198 74.640190,285.662842 
	C75.829781,280.480560 76.892273,275.708221 77.972061,270.966003 
	C77.989357,270.996094 77.920952,270.984070 78.291679,270.967834 
	C78.759758,270.279480 78.857101,269.607330 78.971901,268.965393 
	C78.989349,268.995544 78.920692,268.983521 79.292572,268.969879 
	C79.761642,268.282349 79.858826,267.608459 79.972504,266.965027 
	C79.988991,266.995514 79.920540,266.984802 80.314713,266.965820 
	C81.117805,264.933228 81.526726,262.919647 82.098549,260.549316 
	C82.895493,257.477753 83.529526,254.762878 84.485397,251.880997 
	C87.193390,244.118500 89.579552,236.523026 91.978363,228.959946 
	C91.991028,228.992340 91.924393,228.972397 92.369347,229.074371 
	C94.900620,229.106186 96.986938,229.036011 99.040161,228.979904 
	C99.007072,228.993973 99.040070,228.930069 98.872787,229.326843 
	C99.101387,230.469635 99.497261,231.215668 99.839157,232.303009 
	C99.853058,240.796005 102.331459,248.420959 104.808144,256.061646 
	C105.466331,258.092224 105.930855,260.249420 106.061127,262.374420 
	C106.365044,267.332184 108.787659,269.994965 113.772728,270.337433 
	C116.249977,270.507660 118.719948,270.783966 121.419693,271.003754 
	C121.646164,270.995209 122.066971,271.163635 122.384308,271.384705 
	C127.795372,272.277252 132.919464,272.773560 137.977615,273.650208 
	C161.202454,277.675629 184.394333,281.937744 208.138428,280.975830 
	C225.969376,280.253479 243.656693,281.228424 261.198669,284.828583 
	C265.756226,285.763947 270.563934,285.506104 275.259705,285.734955 
	C279.538300,285.943481 283.937073,285.503693 288.076447,286.354309 
	C295.536224,287.887238 297.957214,287.286469 302.549988,281.032104 
	C305.836761,280.370514 308.701874,279.585876 311.618652,279.135437 
	C321.241577,277.649292 327.759064,270.037354 327.964508,259.526245 
	C328.711578,254.708542 332.963654,249.995605 326.883606,245.750031 
	C326.189514,245.277054 325.563019,245.163376 324.967651,245.027435 
	C324.998718,245.005157 324.959961,245.071075 325.099823,244.729248 
	C320.197662,240.201523 315.176941,235.965332 307.499573,237.029572 
	C305.573303,236.603119 304.050323,236.209091 302.494904,235.483032 
	C299.968109,234.560608 297.502441,233.743713 294.973877,233.423828 
	C288.312225,232.581055 281.623260,231.954193 274.675903,230.948120 
	C263.885529,228.767715 253.406982,227.258163 243.242905,232.389297 
	C241.993668,233.019974 240.212677,232.542343 238.886581,233.086426 
	C235.414246,234.511093 232.057297,236.217010 228.234268,237.902435 
	C220.125702,239.665115 212.437119,241.335693 204.748764,243.007309 
	C193.130386,245.533401 181.503021,248.019241 169.897125,250.601456 
	C162.419647,252.265152 154.973785,254.070816 147.484131,255.486115 
	C144.279236,254.451599 141.103973,253.743820 137.961395,253.024719 
	C137.994095,253.013382 137.989792,253.082443 137.978394,252.715958 
	C137.287094,252.242966 136.607224,252.136459 135.961166,252.021164 
	C135.994995,252.012360 135.998367,252.082184 135.950623,251.720734 
	C135.245438,251.252121 134.587967,251.144958 133.962891,251.025696 
	C133.995270,251.013580 133.995911,251.082703 133.954163,250.700439 
	C133.254761,250.230057 132.597122,250.141953 131.969177,250.029938 
	C131.998856,250.006012 131.965622,250.074661 132.083710,249.704956 
	C131.111435,248.903503 130.021057,248.471741 128.962524,248.025055 
	C128.994354,248.010101 128.974182,248.077484 129.049301,247.699768 
	C128.061478,246.897720 126.998535,246.473419 125.966904,246.027222 
	C125.998222,246.005325 125.959435,246.071198 126.114983,245.711960 
	C124.827507,244.587540 123.384491,243.822372 121.970978,243.028900 
	C122.000496,243.000610 121.943909,243.060532 122.185486,242.757355 
	C118.599892,239.656693 114.772728,236.859192 110.972130,234.031433 
	C110.998688,234.001190 110.959480,234.071442 111.112244,233.689606 
	C110.819748,233.219269 110.374489,233.130768 109.964035,233.021729 
	C109.998833,233.001221 109.939125,233.055679 110.215363,232.745331 
	C109.897087,232.014694 109.302574,231.594376 108.776924,231.166794 
	C108.845787,231.159515 108.800041,231.290237 108.860992,230.952805 
	C107.700333,229.942368 106.478722,229.269363 105.121826,228.243683 
	C102.055244,224.817551 99.123962,221.744064 96.119255,218.593597 
	C84.780113,235.137238 84.658226,235.404877 82.499542,247.559998 
	C80.468918,252.061722 78.749825,256.566650 77.021393,261.037476 
	C77.012070,261.003418 77.082085,260.993835 76.709793,261.095276 
	C76.241348,262.152039 76.145187,263.107361 76.031326,264.032837 
	C76.013611,264.002991 76.082970,264.004028 75.681503,264.067993 
	C75.150780,264.910980 75.021515,265.690033 74.944481,266.478271 
	C74.996712,266.487457 74.891243,266.488708 74.589745,266.751831 
	C74.096497,269.109863 73.837929,271.201263 73.727036,273.300476 
	C73.502968,277.542267 73.359062,281.788239 73.021881,286.306580 
	C71.892067,287.678711 70.922478,288.776764 69.568199,289.947937 
	C63.478317,291.679626 59.892429,290.461517 56.254871,285.777344 
	C55.682552,285.040375 54.713989,284.611084 53.928638,284.039551 
	C53.928638,284.039551 53.992989,284.005341 54.138802,283.648041 
	C53.840183,280.838898 53.395748,278.387054 52.951317,275.935211 
	C52.951317,275.935211 52.996273,276.000336 53.270538,276.186676 
	C54.768322,274.943542 55.991837,273.514099 57.514286,271.973633 
	C58.198376,271.217163 58.583530,270.571716 58.968685,269.926270 
	C58.968689,269.926270 58.992889,269.991455 59.383522,270.124634 
	C61.738640,270.134644 63.703129,270.011505 65.074814,269.925507 
	C67.389709,263.460205 69.643021,257.582642 71.598495,251.607559 
	C74.496887,242.751328 77.184128,233.826004 79.961243,224.930084 
	C79.961243,224.930084 79.991516,224.994522 80.303696,225.096222 
	C85.135757,221.875488 87.504707,217.202133 88.940811,211.942902 
	C88.940811,211.942902 88.999695,212.000000 89.284775,212.227539 
	C89.961845,211.888062 90.353836,211.321014 90.745827,210.753967 
	C90.141235,210.518219 89.536644,210.282455 88.932053,210.046692 
	C88.932053,210.046707 88.997063,209.999786 89.214233,209.709534 
	C88.594757,208.620438 87.758110,207.821609 86.921463,207.022781 
	C86.921471,207.022781 86.989525,207.009857 87.050034,206.673767 
	C86.716202,206.238037 86.321854,206.138382 85.927505,206.038742 
	C85.927505,206.038742 85.996140,206.001465 86.218857,205.707001 
	C85.602066,204.617859 84.762550,203.823151 83.923035,203.028442 
	C83.923035,203.028442 83.990593,203.004868 84.154213,202.690964 
	C83.519295,201.593765 82.720749,200.810455 81.922211,200.027161 
	C81.922211,200.027161 81.990143,200.004623 82.152046,199.705078 
	C81.577927,198.264694 80.841904,197.123840 79.575737,195.161255 
	C78.791374,197.155151 78.414246,198.113831 78.037125,199.072510 
	C78.037125,199.072510 78.003365,199.006592 77.697357,198.836227 
	C76.931770,199.138153 76.472191,199.610443 76.012604,200.082748 
	C76.012611,200.082748 76.004997,200.013504 75.672905,199.840103 
	C73.638908,200.307343 71.982071,201.134277 70.227852,201.558670 
	C58.037582,204.507828 45.888641,207.692337 33.584728,210.067139 
	C29.998188,210.759384 26.981342,211.086731 23.847099,213.507309 
	C21.522026,215.302948 16.953308,216.189667 14.405916,215.097580 
	C12.191146,214.148087 10.751483,209.983414 10.181543,207.007401 
	C9.631866,204.137177 10.633313,200.969864 10.953322,197.933075 
	C10.953322,197.933075 10.995919,197.999374 11.297070,198.191071 
	C16.284376,193.378342 22.076199,193.686722 28.067835,194.955215 
	C28.067835,194.955215 28.004417,194.992798 27.898836,195.312134 
	C28.221331,195.745819 28.649406,195.860168 29.077484,195.974503 
	C29.077484,195.974503 29.010012,195.989975 28.942284,196.313324 
	C29.274954,196.747452 29.675356,196.858231 30.075758,196.969009 
	C30.075758,196.969009 30.008764,196.994034 29.850368,197.345749 
	C30.272413,199.191864 30.852856,200.686279 31.538837,202.452408 
	C34.550026,201.893051 37.274845,201.386887 40.411896,200.907715 
	C53.013363,199.288956 64.347740,195.547607 74.404305,187.149933 
	C73.158852,186.030716 72.039322,185.024673 70.919800,184.018616 
	C70.919800,184.018616 70.987999,184.007584 71.101776,183.622009 
	C71.382607,180.611740 71.771820,177.978760 71.674248,175.363937 
	C71.402313,168.076172 72.304100,161.155869 76.473816,154.886597 
	C77.386765,153.513962 77.483253,151.598297 77.955742,149.932709 
	C77.955742,149.932709 77.986107,149.995346 78.343430,149.979782 
	C78.782707,149.289139 78.864662,148.614044 78.946625,147.938965 
	C78.946625,147.938965 78.994812,147.999237 79.320999,148.124390 
	C80.412125,146.480423 81.177071,144.711334 81.942017,142.942230 
	C81.942024,142.942230 82.000000,143.000000 82.268814,143.243225 
	C83.603851,142.732254 85.175560,142.214752 85.656952,141.186707 
	C89.786316,132.368195 94.959053,123.768867 97.294189,114.469772 
	C98.985657,107.733925 102.713646,104.316231 107.678734,101.065872 
	C109.609612,99.801834 112.061882,99.243134 113.798538,97.791245 
	C118.324562,94.007332 122.586113,89.907074 126.953163,85.932999 
	C126.953163,85.933006 126.999649,85.996590 127.300644,86.198517 
	C128.720505,85.243454 129.839371,84.086449 130.958221,82.929443 
	C130.958221,82.929443 130.998077,82.994514 131.329681,83.187012 
	C138.104034,81.871567 144.546768,80.363617 151.454834,78.919868 
	C164.060822,79.255356 176.203979,79.776009 188.340652,79.653717 
	C192.239853,79.614426 196.121948,77.878571 200.011871,76.918900 
	C200.011871,76.918900 199.998474,76.988434 200.368118,77.128403 
	C214.355408,74.406380 227.956650,71.463074 241.597214,68.714828 
	C249.019485,67.219421 256.489166,65.069794 263.970947,64.923172 
	C288.213470,64.448112 312.613373,63.329796 336.278015,72.116272 
	C342.131622,77.558784 348.606415,75.935402 355.446320,74.777290 
	C362.935425,74.870750 370.004791,74.922852 377.074158,74.974960 
	C377.074158,74.974960 377.004059,74.988724 377.079041,75.307678 
	C382.457489,77.734955 387.760986,79.843285 393.064484,81.951599 
	C393.064484,81.951599 393.002319,81.993073 392.905182,82.319359 
	C394.561218,83.416306 396.314392,84.186958 398.067566,84.957619 
	C398.067566,84.957619 398.004608,84.990700 397.935913,85.330338 
	C398.934113,86.099327 400.001068,86.528694 401.067993,86.958054 
	C401.067993,86.958046 401.005432,86.990929 400.951599,87.286087 
	C401.291077,87.716507 401.684387,87.851761 402.077728,87.987015 
	C402.077728,87.987015 402.001007,87.995354 402.079193,88.314819 
	C402.793152,88.740158 403.428925,88.846039 404.064697,88.951927 
	C404.064697,88.951927 404.003174,88.991852 403.911865,89.339722 
	C404.900970,90.107491 405.981415,90.527397 407.061829,90.947296 
	C407.061829,90.947304 407.002258,90.994644 406.898987,91.318314 
	C407.222473,91.751572 407.649231,91.861153 408.076019,91.970734 
	C408.076019,91.970734 408.008698,91.992371 407.879089,92.313263 
	C409.517578,93.735237 411.285614,94.836311 413.053680,95.937378 
	C413.053680,95.937378 413.001221,95.999352 412.861206,96.337822 
	C413.171875,96.771866 413.622498,96.867432 414.073151,96.962997 
	C414.073151,96.962997 414.007202,96.992928 413.883667,97.334473 
	C414.197662,97.771439 414.635223,97.866859 415.072754,97.962273 
	C415.072754,97.962273 415.007050,97.992920 414.883240,98.339890 
	C415.196838,98.777710 415.634216,98.868568 416.071594,98.959427 
	C416.071594,98.959427 416.005951,98.993958 415.869507,99.340729 
	C416.179291,99.778275 416.625580,99.869057 417.071838,99.959839 
	C417.071838,99.959839 417.006073,99.993927 416.868225,100.341354 
	C417.177521,100.779083 417.624634,100.869370 418.071747,100.959656 
	C418.071747,100.959656 418.001221,100.998940 417.751221,101.263718 
	C419.358337,103.340141 421.215454,105.151802 423.072540,106.963455 
	C423.072540,106.963455 423.007874,106.990654 422.937714,107.307480 
	C423.270630,107.740509 423.673737,107.856720 424.076813,107.972923 
	C424.076813,107.972923 424.009705,107.990265 423.938599,108.307289 
	C424.270599,108.740578 424.673706,108.856842 425.076813,108.973099 
	C425.076813,108.973099 425.009705,108.990318 424.936096,109.316635 
	C425.266663,109.751144 425.670837,109.859329 426.075043,109.967514 
	C426.075043,109.967514 426.008728,109.991226 425.912628,110.320213 
	C426.236053,110.755371 426.655609,110.861542 427.075134,110.967712 
	C427.075134,110.967712 427.008789,110.991150 426.911804,111.329178 
	C427.234253,111.765648 427.653687,111.864082 428.073120,111.962524 
	C428.073120,111.962524 428.007172,111.992874 427.883514,112.335266 
	C428.197479,112.772278 428.635071,112.866898 429.072693,112.961517 
	C429.072693,112.961517 429.004761,112.995247 428.814178,113.327988 
	C429.437897,114.090874 430.252228,114.521004 431.066528,114.951141 
	C431.066528,114.951141 431.000000,114.999084 430.762360,115.265564 
	C435.527374,120.865814 440.500305,126.228310 445.581604,131.486069 
	C446.056030,131.976974 447.215912,131.805481 448.057526,131.941544 
	C448.057526,131.941544 448.001129,131.997406 447.875336,132.325592 
	C448.191467,132.758667 448.633423,132.863571 449.075348,132.968475 
	C449.075348,132.968475 449.008881,132.991043 448.920471,133.307449 
	C449.247162,133.740936 449.662262,133.858017 450.077362,133.975082 
	C450.077362,133.975082 450.009827,133.989929 449.953613,134.292038 
	C450.291229,134.723495 450.685028,134.852844 451.078827,134.982193 
	C451.078827,134.982193 451.009216,134.990204 450.987823,135.275177 
	C451.337372,135.703537 451.708313,135.846939 452.079254,135.990326 
	C452.079254,135.990326 452.007538,135.992172 452.010834,136.335907 
	C453.028717,137.100464 454.043304,137.521317 455.057892,137.942154 
	C455.057892,137.942154 455.001282,137.997421 454.882874,138.335693 
	C455.200317,138.769638 455.636200,138.865280 456.072083,138.960922 
	C456.072083,138.960922 456.006317,138.993759 455.885315,139.323746 
	C456.200989,139.758011 456.637726,139.862289 457.074432,139.966583 
	C457.074432,139.966583 457.008331,139.991608 456.918152,140.314117 
	C457.243805,140.747543 457.659668,140.858459 458.075500,140.969376 
	C458.075500,140.969376 458.009003,140.990967 457.929199,141.312073 
	C458.258118,141.745270 458.666809,141.857361 459.075531,141.969467 
	C459.075531,141.969467 459.007874,141.993088 458.867798,142.309647 
	C459.842621,143.405289 460.957550,144.184387 462.072449,144.963486 
	C462.072449,144.963486 462.007935,144.990997 461.937988,145.319138 
	C462.269897,145.753021 462.671692,145.858780 463.073517,145.964539 
	C463.073517,145.964523 463.007629,145.992371 462.902863,146.325241 
	C463.223236,146.760162 463.648346,146.862213 464.073486,146.964264 
	C464.073486,146.964264 464.005096,146.997650 463.809998,147.299118 
	C467.465881,159.066223 471.316864,170.531860 475.145020,182.412659 
	C475.598999,186.255615 475.286163,190.062881 476.713959,193.033600 
	C479.865540,199.590973 480.249268,206.353668 480.282623,213.367386 
	C480.338562,225.133057 479.459625,236.749100 476.033630,248.071976 
	C476.033630,248.071976 476.011475,248.006668 475.669250,247.975006 
	C474.562927,250.652527 473.798859,253.361725 473.034790,256.070923 
	C473.034790,256.070923 473.013672,256.004303 472.668335,256.076599 
	C471.595093,260.100555 470.867218,264.052246 470.033112,268.388916 
	C469.964844,269.538422 470.002838,270.302948 470.040833,271.067444 
	C470.040833,271.067444 470.014496,271.003387 469.682892,271.058838 
	C468.247070,275.766327 467.142822,280.418396 466.038574,285.070435 
	C466.038605,285.070435 466.012482,285.005951 465.669495,284.977997 
	C463.547241,290.720947 461.431915,296.413605 460.065857,302.280701 
	C457.902100,311.573730 455.830566,320.925232 454.486237,330.361145 
	C453.266602,338.921844 452.497803,347.457886 447.622070,354.962585 
	C447.093506,355.776154 447.225739,357.019043 447.051483,358.062805 
	C447.051483,358.062805 447.006165,358.002533 446.695251,357.906616 
	C446.263123,358.233276 446.141968,358.655853 446.020813,359.078400 
	C446.020813,359.078400 446.010162,359.009857 445.687439,358.957123 
	C444.259460,360.957733 443.154175,363.011047 442.048889,365.064392 
	C442.048889,365.064392 442.004395,365.001312 441.706421,364.848907 
	C437.155640,370.386505 432.844604,376.034668 428.697357,381.800659 
	C427.836426,382.997681 427.582886,384.631622 427.049377,386.064178 
	C427.049408,386.064178 427.006775,386.003082 426.695374,385.911682 
	C426.263123,386.239624 426.142242,386.658966 426.021362,387.078278 
	C426.021362,387.078278 426.009796,387.010071 425.697235,386.944031 
	C415.364807,398.044220 405.338531,409.204712 395.354004,420.402405 
	C395.032715,420.762695 395.138855,421.504028 395.045715,422.067749 
	C395.045715,422.067749 395.007050,422.005463 394.666016,421.906677 
	C394.229553,422.229401 394.134125,422.650879 394.038696,423.072357 
	C394.038696,423.072357 394.001526,423.003723 393.709198,422.781250 
	C392.620422,423.398224 391.824005,424.237701 391.027557,425.077179 
	C391.027557,425.077179 391.004791,425.009521 390.689575,424.845978 
	C389.592285,425.480713 388.810242,426.279022 388.028168,427.077301 
	C388.028168,427.077301 388.004272,427.009369 387.690948,426.838440 
	C384.918579,428.139099 382.459534,429.610657 380.000488,431.082214 
	C380.000488,431.082214 380.004181,431.012634 379.691589,430.899780 
	C378.921692,431.218933 378.464386,431.650970 378.007080,432.083008 
	C378.007050,432.082977 378.004456,432.013885 377.694458,431.854950 
	C376.586243,432.163361 375.788025,432.630707 374.989838,433.098053 
	C374.989838,433.098053 374.951080,432.994110 374.911133,433.129944 
	C374.629303,433.371246 374.489502,433.554352 374.451843,433.815063 
	C373.278198,434.209381 372.104584,434.603699 370.307251,434.773865 
	C363.839966,436.308685 357.980042,438.016571 352.167603,439.873047 
	C351.104401,440.212585 350.234436,441.156952 349.275269,441.822144 
	C347.460388,442.221649 345.645538,442.621155 342.993958,442.979462 
	C330.105042,443.570557 318.056396,444.289276 305.998840,444.795197 
	C300.725067,445.016479 295.431580,444.717438 290.149567,444.805542 
	C281.068237,444.957001 271.961670,445.766815 262.915405,445.312042 
	C251.227524,444.724426 239.588455,443.166016 227.928360,442.025635 
	C227.928360,442.025635 228.000153,442.008820 227.894867,441.727478 
	C226.162811,441.320465 224.536026,441.194824 222.909256,441.069183 
M394.864319,333.358856 
	C387.193817,335.778717 379.523346,338.198578 371.577423,340.705322 
	C373.319763,346.205200 374.855743,351.053650 376.438110,356.048492 
	C380.126984,354.957947 383.457581,353.984985 386.780823,352.987640 
	C390.047638,352.007294 393.307007,351.002197 396.532074,350.019379 
	C400.988983,362.570801 387.969299,375.148163 374.745300,373.542114 
	C357.041443,371.391998 345.289520,349.119019 352.280029,331.362305 
	C356.783478,319.923035 368.478363,314.111420 379.823334,317.940765 
	C383.029297,319.022827 385.958405,320.925171 389.375519,322.631592 
	C392.136078,316.741760 394.856293,310.938049 397.693817,304.883942 
	C391.725067,300.591888 385.374542,298.408081 378.505554,297.890411 
	C345.858521,295.429962 322.741516,321.384308 328.829773,353.564880 
	C333.768829,379.671082 356.113739,396.677979 381.319946,393.038727 
	C400.150177,390.320007 418.161774,374.629669 418.049255,354.962341 
	C417.998322,346.066101 415.132477,337.185913 413.448334,327.765106 
	C406.661713,329.812744 401.149445,331.475891 394.864319,333.358856 
M139.227646,130.540634 
	C130.227249,133.601929 122.295082,138.351349 116.270531,145.804550 
	C96.528069,170.228683 110.271919,209.629013 141.410675,219.138992 
	C173.416367,228.913712 199.250153,200.691101 197.189774,176.860886 
	C196.186523,165.257614 189.056946,157.262161 183.054260,147.958496 
	C171.466995,155.799667 160.243637,163.394577 148.853622,171.102264 
	C151.939880,175.653275 154.707245,179.734024 157.646255,184.067886 
	C163.452454,180.184875 168.930542,176.521286 174.505386,172.792999 
	C175.146805,173.663452 175.628387,174.141052 175.903488,174.717239 
	C179.060318,181.329132 177.647217,187.469284 173.378494,192.917343 
	C168.248703,199.464371 161.358215,202.216125 153.060226,200.657272 
	C141.487701,198.483246 131.006378,187.713776 128.961716,176.084885 
	C126.857574,164.117569 130.495926,155.212662 139.446442,150.362625 
	C146.043640,146.787811 152.790558,147.179916 160.116608,149.892136 
	C161.110870,143.326340 162.064224,137.030640 163.039734,130.588608 
	C155.051376,128.116547 147.543503,128.354950 139.227646,130.540634 
M351.047943,206.428894 
	C353.838959,208.528961 356.549042,210.748520 359.437531,212.704605 
	C365.749603,216.979111 371.796631,221.854584 378.599243,225.147156 
	C389.479736,230.413513 400.177490,227.329178 407.537628,218.043396 
	C414.984558,208.648132 415.011444,200.354767 407.654602,189.876328 
	C407.419556,189.541550 407.402191,189.053940 407.207245,188.370987 
	C408.577576,188.370987 409.721588,188.429077 410.858154,188.361816 
	C420.110535,187.814270 425.483490,182.023605 429.462372,174.448593 
	C433.204987,167.323441 432.080505,160.459259 427.437744,154.317200 
	C418.971497,143.116913 406.409943,136.930649 395.638000,128.096176 
	C377.592377,152.391769 360.006256,176.068680 342.321381,199.878555 
	C345.437347,202.218307 347.954773,204.108627 351.047943,206.428894 
M251.068863,330.455994 
	C252.066116,346.245026 253.012497,362.037445 254.074326,377.822144 
	C255.237122,395.107666 263.331024,405.501343 278.788361,408.458740 
	C284.420319,409.536285 290.430511,409.336823 296.199493,408.870575 
	C315.168488,407.337494 326.386292,395.239960 325.957031,376.243652 
	C325.622437,361.435211 324.321014,346.648682 323.454926,331.852081 
	C323.097168,325.739746 322.754456,319.626526 322.380371,313.085297 
	C315.067169,313.580414 308.371887,314.033691 301.342133,314.509644 
	C302.421356,332.078522 303.503387,349.011383 304.467499,365.950989 
	C304.665222,369.424774 304.763367,372.968353 304.313873,376.402069 
	C303.221405,384.747528 299.042877,388.220032 290.126648,388.734802 
	C282.423828,389.179504 277.134644,385.696533 276.041870,377.683746 
	C274.471039,366.166290 273.943481,354.503326 273.070160,342.894989 
	C272.410156,334.122437 271.905823,325.338165 271.311310,316.239441 
	C264.153198,316.720490 257.413818,317.173401 250.402985,317.644531 
	C250.629547,321.921539 250.830765,325.719727 251.068863,330.455994 
M258.151825,114.570503 
	C254.439026,104.578461 246.935516,98.629173 236.624542,99.016945 
	C222.800415,99.536842 209.045853,101.906799 194.976059,103.515076 
	C199.919235,133.797318 204.668716,162.892975 209.496765,192.469894 
	C216.441605,191.324539 222.880264,190.262650 229.624664,189.150345 
	C227.700012,177.559021 225.926941,166.880569 223.927338,154.837860 
	C226.156479,156.687454 227.416199,157.635681 228.566116,158.702286 
	C236.986252,166.512360 245.359222,174.373535 253.818924,182.140335 
	C254.969742,183.196915 256.633118,184.668411 257.866180,184.503616 
	C265.624634,183.466736 273.328552,182.021347 282.043365,180.542496 
	C269.574890,169.681000 257.994385,159.593048 246.086243,149.219681 
	C259.436829,140.876373 262.678833,129.382858 258.151825,114.570503 
M334.304840,190.015717 
	C342.392120,185.442612 346.604858,178.035767 348.886627,169.433685 
	C352.376221,156.278061 355.607513,143.053665 358.915070,129.850098 
	C360.390869,123.958946 361.785492,118.047462 363.292175,111.835037 
	C356.498779,110.130325 350.259827,108.564743 343.738678,106.928352 
	C343.054230,109.466576 342.443481,111.664513 341.869141,113.871933 
	C337.607025,130.253098 333.684814,146.732941 328.956940,162.978394 
	C326.533936,171.304214 320.980164,174.233109 313.966156,172.635681 
	C304.186737,170.408417 300.510559,166.429794 301.901154,157.123764 
	C303.367462,147.311279 306.103241,137.682510 308.409393,128.003250 
	C310.627747,118.692520 313.005859,109.419861 315.394409,99.805946 
	C308.557281,98.098282 302.336914,96.544662 295.383087,94.807846 
	C290.269287,116.427216 284.899902,137.633423 280.378876,159.018997 
	C278.708984,166.917877 281.442078,174.437698 286.940430,180.741089 
	C296.011383,191.140091 321.083832,197.318863 334.304840,190.015717 
M157.546951,329.769592 
	C155.250885,326.883789 153.546661,323.884369 156.113220,320.290009 
	C158.630371,316.764801 162.276337,316.446472 165.975372,317.453064 
	C168.658264,318.183136 171.383148,319.298309 173.657303,320.867737 
	C177.290848,323.375336 180.565643,326.402771 184.289780,329.454315 
	C188.339325,325.126099 192.410461,320.774811 196.549454,316.350983 
	C189.599106,305.188538 172.580750,296.450836 159.354843,297.915497 
	C148.937225,299.069153 140.722366,303.912933 136.281174,313.834106 
	C131.910126,323.598572 134.459381,332.396057 140.707199,340.385284 
	C143.053314,343.385284 145.932053,345.969513 148.575638,348.735931 
	C151.448288,351.742035 154.424057,354.656097 157.179855,357.765411 
	C159.711716,360.622009 160.432312,363.921875 158.466843,367.428345 
	C156.464508,371.000549 152.928894,372.242950 149.474915,371.135773 
	C144.691711,369.602600 139.786865,367.638397 135.787231,364.698242 
	C131.749710,361.730194 128.753967,357.345001 125.160202,353.426208 
	C120.185112,357.699036 115.164772,362.010712 109.883934,366.546143 
	C121.668877,383.016571 137.012543,392.322479 157.013824,391.586639 
	C173.776718,390.969940 186.330124,374.817596 181.537109,360.006927 
	C179.389938,353.372070 174.202454,347.559113 169.739883,341.888489 
	C166.373856,337.611237 161.966721,334.153290 157.546951,329.769592 
M198.881790,324.264648 
	C195.356049,349.737457 191.830292,375.210266 188.228363,401.233490 
	C206.020370,403.647278 223.307739,405.992615 240.723923,408.355408 
	C241.604614,401.684967 242.354675,396.003967 243.130661,390.126617 
	C232.329956,388.596863 222.183868,387.159790 211.691315,385.673645 
	C215.038071,361.120789 218.328949,336.977905 221.678329,312.405823 
	C214.619781,311.485596 207.944519,310.615326 200.851624,309.690582 
	C200.170349,314.576172 199.556610,318.977478 198.881790,324.264648 
z"/>
<path fill="#FFFCEA" opacity="1.000000" stroke="none" 
	d="
M336.019745,71.878220 
	C312.613373,63.329796 288.213470,64.448112 263.970947,64.923172 
	C256.489166,65.069794 249.019485,67.219421 241.597214,68.714828 
	C227.956650,71.463074 214.355408,74.406380 200.334229,77.118134 
	C212.361008,73.640259 224.737717,70.090424 237.243195,67.074547 
	C243.949707,65.457169 250.876450,64.750420 257.706635,63.650234 
	C259.308441,63.392220 260.920929,63.020748 262.529755,63.014290 
	C275.489227,62.962250 288.452240,62.806305 301.407776,63.037647 
	C313.267120,63.249413 324.771210,65.554749 335.883179,70.795181 
	C336.023560,71.378952 336.019745,71.878220 336.019745,71.878220 
z"/>
<path fill="#FFFDED" opacity="1.000000" stroke="none" 
	d="
M228.041901,442.355743 
	C239.588455,443.166016 251.227524,444.724426 262.915405,445.312042 
	C271.961670,445.766815 281.068237,444.957001 290.149567,444.805542 
	C295.431580,444.717438 300.725067,445.016479 305.998840,444.795197 
	C318.056396,444.289276 330.105042,443.570557 342.589233,443.038940 
	C337.784576,444.428467 332.592468,446.522491 327.300842,446.815002 
	C319.606750,447.240265 311.842834,446.297791 304.104797,446.075073 
	C299.960449,445.955811 295.605835,445.321289 291.696289,446.307495 
	C279.119293,449.480164 266.730408,448.037689 254.250000,446.104462 
	C250.220154,445.480286 246.092834,445.507202 242.044510,444.974792 
	C237.394882,444.363312 232.783447,443.461548 228.041901,442.355743 
z"/>
<path fill="#FFFDEE" opacity="1.000000" stroke="none" 
	d="
M74.513092,286.072815 
	C75.972794,296.403198 77.076820,306.800842 79.012665,317.041229 
	C80.386787,324.310150 82.223701,331.637878 85.025085,338.458374 
	C89.916031,350.366180 95.711281,361.902435 101.118484,373.598602 
	C101.535095,374.499786 101.880211,375.433960 102.111076,376.712128 
	C96.425415,373.555634 95.665573,367.184692 93.062309,361.952637 
	C89.863770,355.524170 86.762352,349.014099 84.183723,342.321686 
	C82.358009,337.583313 81.459724,332.486420 80.164566,327.545074 
	C77.941063,319.061890 75.560913,310.614197 73.603722,302.069763 
	C72.879745,298.909119 73.248291,295.508423 72.894569,292.241486 
	C72.842728,291.762665 71.541626,291.419098 70.409790,290.757751 
	C69.984993,290.293274 69.968941,290.084045 69.952896,289.874817 
	C70.922478,288.776764 71.892067,287.678711 73.243965,286.310822 
	C73.921623,286.058868 74.217224,286.069489 74.513092,286.072815 
z"/>
<path fill="#FFFDED" opacity="1.000000" stroke="none" 
	d="
M10.595316,198.069672 
	C10.633313,200.969864 9.631866,204.137177 10.181543,207.007401 
	C10.751483,209.983414 12.191146,214.148087 14.405916,215.097580 
	C16.953308,216.189667 21.522026,215.302948 23.847099,213.507309 
	C26.981342,211.086731 29.998188,210.759384 33.584728,210.067139 
	C45.888641,207.692337 58.037582,204.507828 70.227852,201.558670 
	C71.982071,201.134277 73.638908,200.307343 75.704407,199.854950 
	C67.885315,205.767838 58.339691,207.877197 48.857796,209.916245 
	C43.333656,211.104202 37.577789,211.175217 31.984489,212.100998 
	C29.848856,212.454514 27.724751,213.550369 25.856316,214.723495 
	C19.395603,218.779968 14.730181,219.202179 11.269152,215.769897 
	C7.230344,211.764587 6.746144,203.522903 10.595316,198.069672 
z"/>
<path fill="#FFFCED" opacity="1.000000" stroke="none" 
	d="
M126.595108,85.960365 
	C122.586113,89.907074 118.324562,94.007332 113.798538,97.791245 
	C112.061882,99.243134 109.609612,99.801834 107.678734,101.065872 
	C102.713646,104.316231 98.985657,107.733925 97.294189,114.469772 
	C94.959053,123.768867 89.786316,132.368195 85.656952,141.186707 
	C85.175560,142.214752 83.603851,142.732254 82.241005,143.213120 
	C85.294052,135.751236 88.813805,128.635315 91.926727,121.345665 
	C93.668129,117.267754 94.161682,112.582596 96.286705,108.766434 
	C97.988304,105.710670 101.029526,103.172821 103.954887,101.071526 
	C111.236710,95.840942 118.791725,90.990692 126.595108,85.960365 
z"/>
<path fill="#FFFCEC" opacity="1.000000" stroke="none" 
	d="
M447.389191,357.944550 
	C447.225739,357.019043 447.093506,355.776154 447.622070,354.962585 
	C452.497803,347.457886 453.266602,338.921844 454.486237,330.361145 
	C455.830566,320.925232 457.902100,311.573730 460.065857,302.280701 
	C461.431915,296.413605 463.547241,290.720947 465.703735,284.984192 
	C463.323822,297.212494 460.445984,309.381134 457.862030,321.611847 
	C456.630035,327.443451 455.509796,333.365631 455.145721,339.296326 
	C454.708160,346.424194 450.962189,351.962769 447.389191,357.944550 
z"/>
<path fill="#FFFBE7" opacity="1.000000" stroke="none" 
	d="
M476.379944,247.939423 
	C479.459625,236.749100 480.338562,225.133057 480.282623,213.367386 
	C480.249268,206.353668 479.865540,199.590973 476.713959,193.033600 
	C475.286163,190.062881 475.598999,186.255615 475.383789,182.403046 
	C475.645386,181.978256 476.122833,181.953400 476.122833,181.953400 
	C478.087524,190.882385 481.181976,199.744019 481.719421,208.758087 
	C482.335663,219.094376 480.869446,229.583389 479.890442,239.966690 
	C479.636932,242.655624 477.823242,245.197464 476.379944,247.939423 
z"/>
<path fill="#FFFDED" opacity="1.000000" stroke="none" 
	d="
M79.605896,225.062820 
	C77.184128,233.826004 74.496887,242.751328 71.598495,251.607559 
	C69.643021,257.582642 67.389709,263.460205 65.074814,269.925507 
	C63.703129,270.011505 61.738640,270.134644 59.350739,270.113037 
	C63.743149,268.439667 64.937057,264.736267 66.224625,260.158752 
	C68.422211,252.345932 72.018921,244.931229 74.938911,237.315170 
	C76.473488,233.312622 77.819420,229.237762 79.605896,225.062820 
z"/>
<path fill="#FFFCEC" opacity="1.000000" stroke="none" 
	d="
M395.397614,422.040588 
	C395.138855,421.504028 395.032715,420.762695 395.354004,420.402405 
	C405.338531,409.204712 415.364807,398.044220 425.731018,386.951477 
	C422.644745,392.234680 419.766174,397.940399 415.649780,402.537903 
	C409.472015,409.437744 402.426178,415.560333 395.397614,422.040588 
z"/>
<path fill="#FFFCED" opacity="1.000000" stroke="none" 
	d="
M77.621040,150.047729 
	C77.483253,151.598297 77.386765,153.513962 76.473816,154.886597 
	C72.304100,161.155869 71.402313,168.076172 71.674248,175.363937 
	C71.771820,177.978760 71.382607,180.611740 71.092751,183.655350 
	C67.051788,179.502457 69.032509,174.034821 69.193542,169.085007 
	C69.425201,161.963943 72.830116,155.725479 77.621040,150.047729 
z"/>
<path fill="#FFFDEE" opacity="1.000000" stroke="none" 
	d="
M135.051453,413.384583 
	C135.945129,413.266083 137.162170,413.181519 137.921692,413.730286 
	C148.247696,421.190308 159.749741,426.017517 171.997665,429.237366 
	C172.610657,429.398529 173.141144,429.873474 173.870178,430.519958 
	C161.582230,428.863007 150.299774,423.937347 139.743454,417.216125 
	C138.127823,416.187408 136.684906,414.887451 135.051453,413.384583 
z"/>
<path fill="#FFFCED" opacity="1.000000" stroke="none" 
	d="
M70.950958,184.413681 
	C72.039322,185.024673 73.158852,186.030716 74.404305,187.149933 
	C64.347740,195.547607 53.013363,199.288956 40.412060,200.727417 
	C40.000000,200.520111 40.000336,200.159409 40.000336,200.159409 
	C43.819504,199.104126 47.809956,198.449188 51.419838,196.904724 
	C57.667526,194.231720 63.717331,191.079834 69.741669,187.921875 
	C70.492737,187.528168 70.584732,185.877167 70.950958,184.413681 
z"/>
<path fill="#FFFBE1" opacity="1.000000" stroke="none" 
	d="
M199.568405,76.958237 
	C196.121948,77.878571 192.239853,79.614426 188.340652,79.653717 
	C176.203979,79.776009 164.060822,79.255356 151.455780,78.748711 
	C150.991394,78.513351 150.993317,78.170837 150.993317,78.170837 
	C167.037186,77.779755 183.081070,77.388672 199.568405,76.958237 
z"/>
<path fill="#FFFCE8" opacity="1.000000" stroke="none" 
	d="
M476.068939,181.537125 
	C476.122833,181.953400 475.645386,181.978256 475.406616,181.987869 
	C471.316864,170.531860 467.465881,159.066223 463.833374,147.269119 
	C466.372803,151.188217 469.212524,155.245773 470.883514,159.738098 
	C472.982574,165.381073 474.161713,171.370621 475.649719,177.232986 
	C475.966125,178.479538 475.903198,179.822372 476.068939,181.537125 
z"/>
<path fill="#FFFDEE" opacity="1.000000" stroke="none" 
	d="
M107.965134,386.423462 
	C110.292793,387.706329 113.048843,388.994324 114.908798,391.081024 
	C118.366196,394.959900 121.301125,399.304535 124.198120,403.757324 
	C122.287445,402.669464 120.432472,401.456299 119.015556,399.855408 
	C115.239449,395.588989 111.651794,391.155823 107.965134,386.423462 
z"/>
<path fill="#FFFCEC" opacity="1.000000" stroke="none" 
	d="
M447.955750,131.622223 
	C447.215912,131.805481 446.056030,131.976974 445.581604,131.486069 
	C440.500305,126.228310 435.527374,120.865814 430.792236,115.237366 
	C434.923126,118.672867 438.793854,122.395477 442.646637,126.136589 
	C444.400726,127.839844 446.119293,129.579666 447.955750,131.622223 
z"/>
<path fill="#FFFCEC" opacity="1.000000" stroke="none" 
	d="
M427.377686,385.954895 
	C427.582886,384.631622 427.836426,382.997681 428.697357,381.800659 
	C432.844604,376.034668 437.155640,370.386505 441.738678,364.870209 
	C437.281250,371.977814 432.493622,378.911743 427.377686,385.954895 
z"/>
<path fill="#FFFDED" opacity="1.000000" stroke="none" 
	d="
M27.933167,194.598755 
	C22.076199,193.686722 16.284376,193.378342 11.266558,198.166077 
	C13.822780,191.724350 21.451107,190.047424 27.933167,194.598755 
z"/>
<path fill="#FFFADF" opacity="1.000000" stroke="none" 
	d="
M349.602783,441.649780 
	C350.234436,441.156952 351.104401,440.212585 352.167603,439.873047 
	C357.980042,438.016571 363.839966,436.308685 369.923889,434.778748 
	C363.419525,437.164307 356.674927,439.320862 349.602783,441.649780 
z"/>
<path fill="#FFFADF" opacity="1.000000" stroke="none" 
	d="
M336.278015,72.116272 
	C336.019745,71.878220 336.023560,71.378952 336.037598,71.129745 
	C341.666931,74.140846 347.812073,74.333237 354.533661,74.149330 
	C355.017395,74.309669 355.026581,74.735939 355.026581,74.735939 
	C348.606415,75.935402 342.131622,77.558784 336.278015,72.116272 
z"/>
<path fill="#FFFDED" opacity="1.000000" stroke="none" 
	d="
M88.611610,212.053589 
	C87.504707,217.202133 85.135757,221.875488 80.270744,225.082764 
	C82.711205,220.699814 85.496811,216.432053 88.611610,212.053589 
z"/>
<path fill="#FFFDEE" opacity="1.000000" stroke="none" 
	d="
M69.568207,289.947937 
	C69.968941,290.084045 69.984993,290.293274 70.024208,290.816437 
	C60.597511,293.727753 56.338356,291.093140 53.958317,284.406860 
	C54.713989,284.611084 55.682552,285.040375 56.254871,285.777344 
	C59.892429,290.461517 63.478317,291.679626 69.568207,289.947937 
z"/>
<path fill="#FFFCED" opacity="1.000000" stroke="none" 
	d="
M150.573944,78.092987 
	C150.993317,78.170837 150.991394,78.513351 150.990448,78.684509 
	C144.546768,80.363617 138.104034,81.871567 131.297806,83.166061 
	C132.144363,81.998795 133.243347,80.445862 134.584122,80.197342 
	C139.732208,79.243095 144.957855,78.707130 150.573944,78.092987 
z"/>
<path fill="#FFFCE6" opacity="1.000000" stroke="none" 
	d="
M392.947998,81.612335 
	C387.760986,79.843285 382.457489,77.734955 377.075134,75.272171 
	C382.274658,77.036163 387.553101,79.154617 392.947998,81.612335 
z"/>
<path fill="#FFFEF4" opacity="1.000000" stroke="none" 
	d="
M355.446320,74.777290 
	C355.026581,74.735939 355.017395,74.309669 354.992188,74.097893 
	C362.226227,74.000076 369.485474,74.114037 376.909424,74.601471 
	C370.004791,74.922852 362.935425,74.870750 355.446320,74.777290 
z"/>
<path fill="#FFFCEC" opacity="1.000000" stroke="none" 
	d="
M466.400452,284.914978 
	C467.142822,280.418396 468.247070,275.766327 469.717468,271.057129 
	C468.976562,275.586487 467.869446,280.173004 466.400452,284.914978 
z"/>
<path fill="#FFFDED" opacity="1.000000" stroke="none" 
	d="
M39.582176,200.080322 
	C40.000336,200.159409 40.000000,200.520111 39.999832,200.700409 
	C37.274845,201.386887 34.550026,201.893051 31.538837,202.452408 
	C30.852856,200.686279 30.272413,199.191864 29.866241,197.313705 
	C32.480141,199.740646 35.595825,200.543045 39.582176,200.080322 
z"/>
<path fill="#FFFBE7" opacity="1.000000" stroke="none" 
	d="
M470.139374,268.003937 
	C470.867218,264.052246 471.595093,260.100555 472.703156,256.073730 
	C472.383820,259.729401 471.684296,263.460205 470.736572,267.596252 
	C470.488312,268.001526 470.139374,268.003937 470.139374,268.003937 
z"/>
<path fill="#FFFDEE" opacity="1.000000" stroke="none" 
	d="
M124.045074,404.378174 
	C126.424194,405.848267 128.906097,407.638275 131.168243,409.746155 
	C128.681610,408.275421 126.414734,406.486786 124.045074,404.378174 
z"/>
<path fill="#FFFCEC" opacity="1.000000" stroke="none" 
	d="
M423.043610,106.616119 
	C421.215454,105.151802 419.358337,103.340141 417.781677,101.237167 
	C419.712952,102.720161 421.363800,104.494469 423.043610,106.616119 
z"/>
<path fill="#FFFCEC" opacity="1.000000" stroke="none" 
	d="
M380.381958,431.042297 
	C382.459534,429.610657 384.918579,428.139099 387.722351,426.856140 
	C385.632507,428.363953 383.197968,429.683167 380.381958,431.042297 
z"/>
<path fill="#FFFBE7" opacity="1.000000" stroke="none" 
	d="
M473.389771,255.928833 
	C473.798859,253.361725 474.562927,250.652527 475.703125,247.981308 
	C475.301086,250.608429 474.522888,253.197586 473.389771,255.928833 
z"/>
<path fill="#FFFCEC" opacity="1.000000" stroke="none" 
	d="
M442.377380,364.954590 
	C443.154175,363.011047 444.259460,360.957733 445.721619,358.963196 
	C444.954254,360.962891 443.830048,362.903839 442.377380,364.954590 
z"/>
<path fill="#FFFCEC" opacity="1.000000" stroke="none" 
	d="
M412.951416,95.617142 
	C411.285614,94.836311 409.517578,93.735237 407.893616,92.281044 
	C409.641541,93.050919 411.245361,94.173912 412.951416,95.617142 
z"/>
<path fill="#FFFDED" opacity="1.000000" stroke="none" 
	d="
M78.391342,199.044586 
	C78.414246,198.113831 78.791374,197.155151 79.575737,195.161255 
	C80.841904,197.123840 81.577927,198.264694 82.134964,199.736542 
	C80.885841,199.717224 79.815697,199.366943 78.391342,199.044586 
z"/>
<path fill="#FFFDEE" opacity="1.000000" stroke="none" 
	d="
M52.582222,276.102600 
	C53.395748,278.387054 53.840183,280.838898 54.123337,283.681030 
	C53.379082,281.470917 52.796104,278.870453 52.582222,276.102600 
z"/>
<path fill="#FFFCE6" opacity="1.000000" stroke="none" 
	d="
M397.958130,84.625336 
	C396.314392,84.186958 394.561218,83.416306 392.921539,82.285782 
	C394.639587,82.714958 396.244171,83.504005 397.958130,84.625336 
z"/>
<path fill="#FFFCED" opacity="1.000000" stroke="none" 
	d="
M81.612709,143.053589 
	C81.177071,144.711334 80.412125,146.480423 79.287201,148.105743 
	C79.712616,146.362946 80.498009,144.763962 81.612709,143.053589 
z"/>
<path fill="#FFFDEE" opacity="1.000000" stroke="none" 
	d="
M57.215351,272.084625 
	C55.991837,273.514099 54.768322,274.943542 53.240437,276.160858 
	C53.708809,274.694946 54.481552,273.441162 55.899681,272.099976 
	C56.768494,272.036560 56.991920,272.060577 57.215351,272.084625 
z"/>
<path fill="#FFFDEE" opacity="1.000000" stroke="none" 
	d="
M131.041534,410.372864 
	C132.409561,410.825958 133.880875,411.598572 135.152664,412.719421 
	C133.683701,412.275879 132.414261,411.484131 131.041534,410.372864 
z"/>
<path fill="#FFFCED" opacity="1.000000" stroke="none" 
	d="
M130.620239,82.957855 
	C129.839371,84.086449 128.720505,85.243454 127.269318,86.174721 
	C128.052078,84.961418 129.167175,83.973839 130.620239,82.957855 
z"/>
<path fill="#FFFDED" opacity="1.000000" stroke="none" 
	d="
M223.086105,441.425659 
	C224.536026,441.194824 226.162811,441.320465 227.902252,441.763611 
	C226.430939,441.981415 224.846954,441.881775 223.086105,441.425659 
z"/>
<path fill="#FFFCE8" opacity="1.000000" stroke="none" 
	d="
M462.043884,144.607788 
	C460.957550,144.184387 459.842621,143.405289 458.884460,142.277939 
	C460.032593,142.703812 461.023956,143.477966 462.043884,144.607788 
z"/>
<path fill="#FFFDED" opacity="1.000000" stroke="none" 
	d="
M86.953415,207.355560 
	C87.758110,207.821609 88.594757,208.620438 89.188255,209.739960 
	C88.291862,209.269882 87.638611,208.479111 86.953415,207.355560 
z"/>
<path fill="#FFFCEC" opacity="1.000000" stroke="none" 
	d="
M406.961914,90.630264 
	C405.981415,90.527397 404.900970,90.107491 403.925659,89.305725 
	C404.974487,89.386986 405.918213,89.850105 406.961914,90.630264 
z"/>
<path fill="#FFFCEC" opacity="1.000000" stroke="none" 
	d="
M388.361389,427.046204 
	C388.810242,426.279022 389.592285,425.480713 390.721069,424.862793 
	C390.276764,425.700439 389.485687,426.357758 388.361389,427.046204 
z"/>
<path fill="#FFFCEC" opacity="1.000000" stroke="none" 
	d="
M391.359924,425.046112 
	C391.824005,424.237701 392.620422,423.398224 393.738403,422.807098 
	C393.270691,423.708649 392.481476,424.361847 391.359924,425.046112 
z"/>
<path fill="#FFFDED" opacity="1.000000" stroke="none" 
	d="
M83.954170,203.360718 
	C84.762550,203.823151 85.602066,204.617859 86.193253,205.736481 
	C85.291710,205.271255 84.638504,204.482117 83.954170,203.360718 
z"/>
<path fill="#FFFCE8" opacity="1.000000" stroke="none" 
	d="
M454.958618,137.623856 
	C454.043304,137.521317 453.028717,137.100464 452.012207,136.300049 
	C452.959991,136.382187 453.909668,136.843872 454.958618,137.623856 
z"/>
<path fill="#FFFDED" opacity="1.000000" stroke="none" 
	d="
M81.955818,200.360184 
	C82.720749,200.810455 83.519295,201.593765 84.137367,202.722534 
	C83.301079,202.276398 82.645256,201.484802 81.955818,200.360184 
z"/>
<path fill="#FFFCE6" opacity="1.000000" stroke="none" 
	d="
M400.968994,86.638863 
	C400.001068,86.528694 398.934113,86.099327 397.947510,85.296730 
	C398.975189,85.388885 399.922577,85.854279 400.968994,86.638863 
z"/>
<path fill="#FFFDED" opacity="1.000000" stroke="none" 
	d="
M57.514286,271.973633 
	C56.991920,272.060577 56.768494,272.036560 56.209534,271.980682 
	C56.683327,271.295197 57.492649,270.641632 58.635330,269.957153 
	C58.583530,270.571716 58.198376,271.217163 57.514286,271.973633 
z"/>
<path fill="#FFFCEC" opacity="1.000000" stroke="none" 
	d="
M431.040466,114.596619 
	C430.252228,114.521004 429.437897,114.090874 428.835938,113.296936 
	C429.703674,113.369453 430.359009,113.805771 431.040466,114.596619 
z"/>
<path fill="#FFFDED" opacity="1.000000" stroke="none" 
	d="
M88.957603,210.362442 
	C89.536644,210.282455 90.141235,210.518219 90.745827,210.753967 
	C90.353836,211.321014 89.961845,211.888062 89.254784,212.199158 
	C88.954193,211.521530 88.968674,211.099869 88.957603,210.362442 
z"/>
<path fill="#FFFCEC" opacity="1.000000" stroke="none" 
	d="
M375.347717,433.050415 
	C375.788025,432.630707 376.586243,432.163361 377.726166,431.868713 
	C377.280457,432.361847 376.493011,432.682312 375.347717,433.050415 
z"/>
<path fill="#FFFCEC" opacity="1.000000" stroke="none" 
	d="
M470.033112,268.388916 
	C470.139374,268.003937 470.488312,268.001526 470.662781,268.000763 
	C470.796844,268.938324 470.756409,269.876678 470.378418,270.941223 
	C470.002838,270.302948 469.964844,269.538422 470.033112,268.388916 
z"/>
<path fill="#FFFCEC" opacity="1.000000" stroke="none" 
	d="
M378.332336,432.047302 
	C378.464386,431.650970 378.921692,431.218933 379.725189,430.909058 
	C379.600098,431.357971 379.128876,431.684814 378.332336,432.047302 
z"/>
<path fill="#FFFCED" opacity="1.000000" stroke="none" 
	d="
M78.638977,148.037750 
	C78.864662,148.614044 78.782707,149.289139 78.308731,149.977203 
	C78.054916,149.372299 78.193123,148.754410 78.638977,148.037750 
z"/>
<path fill="#FFFDEE" opacity="1.000000" stroke="none" 
	d="
M104.956070,382.341675 
	C105.239784,382.106781 105.558037,382.196686 105.945511,382.869568 
	C105.994743,383.676636 105.974770,383.900696 105.954796,384.124725 
	C105.633400,383.638641 105.312004,383.152527 104.956070,382.341675 
z"/>
<path fill="#FFFDED" opacity="1.000000" stroke="none" 
	d="
M76.335541,200.049255 
	C76.472191,199.610443 76.931770,199.138153 77.729012,198.855438 
	C77.597275,199.368591 77.127876,199.692184 76.335541,200.049255 
z"/>
<path fill="#FFFCEC" opacity="1.000000" stroke="none" 
	d="
M403.964539,88.641891 
	C403.428925,88.846039 402.793152,88.740158 402.075562,88.276382 
	C402.617310,88.056274 403.240875,88.194061 403.964539,88.641891 
z"/>
<path fill="#FFFDEE" opacity="1.000000" stroke="none" 
	d="
M101.952507,377.330780 
	C102.378342,377.469635 102.839867,377.931732 103.129845,378.731140 
	C102.634933,378.596985 102.311562,378.125488 101.952507,377.330780 
z"/>
<path fill="#FFFDEE" opacity="1.000000" stroke="none" 
	d="
M102.951920,379.331421 
	C103.399101,379.474030 103.881310,379.939117 104.157906,380.734619 
	C103.630516,380.594635 103.308731,380.124298 102.951920,379.331421 
z"/>
<path fill="#FFFDEE" opacity="1.000000" stroke="none" 
	d="
M106.016815,384.369934 
	C105.974770,383.900696 105.994743,383.676636 106.050507,383.116760 
	C106.531532,383.348816 106.976761,383.916687 107.182739,384.771759 
	C106.655273,384.910980 106.367050,384.763031 106.016815,384.369934 
z"/>
<path fill="#FFFDEE" opacity="1.000000" stroke="none" 
	d="
M103.987930,381.297668 
	C104.289711,381.149963 104.656227,381.271484 105.005035,381.736115 
	C104.675781,381.908417 104.364220,381.737640 103.987930,381.297668 
z"/>
<path fill="#FFFCEC" opacity="1.000000" stroke="none" 
	d="
M374.618286,433.727600 
	C374.489502,433.554352 374.629303,433.371246 374.960449,433.104614 
	C375.055969,433.211670 374.967621,433.443909 374.618286,433.727600 
z"/>
<path fill="#FFFDEE" opacity="1.000000" stroke="none" 
	d="
M106.986465,385.298340 
	C107.369980,385.134521 107.814934,385.235474 108.110184,385.704346 
	C107.656296,385.902496 107.352104,385.732819 106.986465,385.298340 
z"/>
<path fill="#FFFCEC" opacity="1.000000" stroke="none" 
	d="
M426.289490,387.016724 
	C426.142242,386.658966 426.263123,386.239624 426.729492,385.926666 
	C426.902496,386.340393 426.730042,386.647766 426.289490,387.016724 
z"/>
<path fill="#FFFCEC" opacity="1.000000" stroke="none" 
	d="
M394.303711,423.010620 
	C394.134125,422.650879 394.229553,422.229401 394.700073,421.920227 
	C394.906372,422.337982 394.737549,422.643402 394.303711,423.010620 
z"/>
<path fill="#FFFCEC" opacity="1.000000" stroke="none" 
	d="
M446.288361,359.016266 
	C446.141968,358.655853 446.263123,358.233276 446.729462,357.922455 
	C446.901703,358.340820 446.728821,358.647491 446.288361,359.016266 
z"/>
<path fill="#FFFCEC" opacity="1.000000" stroke="none" 
	d="
M450.015564,133.707367 
	C449.662262,133.858017 449.247162,133.740936 448.931763,133.274231 
	C449.338898,133.096283 449.646362,133.267960 450.015564,133.707367 
z"/>
<path fill="#FFFCEC" opacity="1.000000" stroke="none" 
	d="
M416.010803,98.695206 
	C415.634216,98.868568 415.196838,98.777710 414.898438,98.306961 
	C415.341614,98.095039 415.645844,98.263008 416.010803,98.695206 
z"/>
<path fill="#FFFCEC" opacity="1.000000" stroke="none" 
	d="
M417.011292,99.695984 
	C416.625580,99.869057 416.179291,99.778275 415.886658,99.307861 
	C416.343781,99.096199 416.647278,99.264160 417.011292,99.695984 
z"/>
<path fill="#FFFCEC" opacity="1.000000" stroke="none" 
	d="
M418.011230,100.695877 
	C417.624634,100.869370 417.177521,100.779083 416.885437,100.308556 
	C417.343842,100.096252 417.647278,100.264175 418.011230,100.695877 
z"/>
<path fill="#FFFCEC" opacity="1.000000" stroke="none" 
	d="
M414.012695,96.698822 
	C413.622498,96.867432 413.171875,96.771866 412.881470,96.302658 
	C413.345184,96.097572 413.648712,96.266113 414.012695,96.698822 
z"/>
<path fill="#FFFCEC" opacity="1.000000" stroke="none" 
	d="
M424.014496,107.704926 
	C423.673737,107.856720 423.270630,107.740509 422.947327,107.273750 
	C423.335449,107.094437 423.643829,107.265678 424.014496,107.704926 
z"/>
<path fill="#FFFCEC" opacity="1.000000" stroke="none" 
	d="
M425.014465,108.705109 
	C424.673706,108.856842 424.270599,108.740578 423.947296,108.273750 
	C424.335449,108.094498 424.643768,108.265800 425.014465,108.705109 
z"/>
<path fill="#FFFCEC" opacity="1.000000" stroke="none" 
	d="
M426.011780,109.701126 
	C425.670837,109.859329 425.266663,109.751144 424.944763,109.283112 
	C425.334229,109.093758 425.641357,109.264244 426.011780,109.701126 
z"/>
<path fill="#FFFCEC" opacity="1.000000" stroke="none" 
	d="
M427.012299,110.702103 
	C426.655609,110.861542 426.236053,110.755371 425.924438,110.287048 
	C426.338043,110.095421 426.643768,110.265961 427.012299,110.702103 
z"/>
<path fill="#FFFCEC" opacity="1.000000" stroke="none" 
	d="
M428.010345,111.697800 
	C427.653687,111.864082 427.234253,111.765648 426.923431,111.295982 
	C427.337219,111.094193 427.642395,111.263626 428.010345,111.697800 
z"/>
<path fill="#FFFCEC" opacity="1.000000" stroke="none" 
	d="
M429.011597,112.697083 
	C428.635071,112.866898 428.197479,112.772278 427.898743,112.302322 
	C428.341949,112.095543 428.646210,112.264091 429.011597,112.697083 
z"/>
<path fill="#FFFCEC" opacity="1.000000" stroke="none" 
	d="
M408.014557,91.704330 
	C407.649231,91.861153 407.222473,91.751572 406.915405,91.283997 
	C407.341125,91.096642 407.647095,91.267281 408.014557,91.704330 
z"/>
<path fill="#FFFCEC" opacity="1.000000" stroke="none" 
	d="
M449.014404,132.703140 
	C448.633423,132.863571 448.191467,132.758667 447.894653,132.290894 
	C448.344299,132.097931 448.648865,132.267868 449.014404,132.703140 
z"/>
<path fill="#FFFCEC" opacity="1.000000" stroke="none" 
	d="
M415.011963,97.697563 
	C414.635223,97.866859 414.197662,97.771439 413.898865,97.301620 
	C414.342133,97.095757 414.646637,97.264305 415.011963,97.697563 
z"/>
<path fill="#FFFCEC" opacity="1.000000" stroke="none" 
	d="
M451.016602,134.712128 
	C450.685028,134.852844 450.291229,134.723495 449.960754,134.258209 
	C450.334198,134.095535 450.644257,134.268799 451.016602,134.712128 
z"/>
<path fill="#FFFCEC" opacity="1.000000" stroke="none" 
	d="
M452.016235,135.718018 
	C451.708313,135.846939 451.337372,135.703537 450.990967,135.240265 
	C451.328064,135.095505 451.640656,135.270615 452.016235,135.718018 
z"/>
<path fill="#FFFCE8" opacity="1.000000" stroke="none" 
	d="
M456.012390,138.696075 
	C455.636200,138.865280 455.200317,138.769638 454.901733,138.300949 
	C455.343567,138.095688 455.648132,138.263443 456.012390,138.696075 
z"/>
<path fill="#FFFCE8" opacity="1.000000" stroke="none" 
	d="
M457.014679,139.700836 
	C456.637726,139.862289 456.200989,139.758011 455.901978,139.291000 
	C456.344757,139.097214 456.649841,139.266144 457.014679,139.700836 
z"/>
<path fill="#FFFCE8" opacity="1.000000" stroke="none" 
	d="
M458.014984,140.702148 
	C457.659668,140.858459 457.243805,140.747543 456.930573,140.281036 
	C457.340271,140.095276 457.647369,140.265106 458.014984,140.702148 
z"/>
<path fill="#FFFCE8" opacity="1.000000" stroke="none" 
	d="
M459.014679,141.701904 
	C458.666809,141.857361 458.258118,141.745270 457.940063,141.278839 
	C458.338409,141.094452 458.646118,141.264389 459.014679,141.701904 
z"/>
<path fill="#FFFCE8" opacity="1.000000" stroke="none" 
	d="
M463.011322,145.698151 
	C462.671692,145.858780 462.269897,145.753021 461.947845,145.285477 
	C462.334778,145.093048 462.641968,145.262405 463.011322,145.698151 
z"/>
<path fill="#FFFCE8" opacity="1.000000" stroke="none" 
	d="
M464.013184,146.698364 
	C463.648346,146.862213 463.223236,146.760162 462.916779,146.292297 
	C463.341248,146.095154 463.647064,146.263824 464.013184,146.698364 
z"/>
<path fill="#FFFCE6" opacity="1.000000" stroke="none" 
	d="
M402.018188,87.715408 
	C401.684387,87.851761 401.291077,87.716507 400.962036,87.252342 
	C401.337128,87.096886 401.647888,87.270340 402.018188,87.715408 
z"/>
<path fill="#FFFDED" opacity="1.000000" stroke="none" 
	d="
M29.015844,195.707520 
	C28.649406,195.860168 28.221331,195.745819 27.914242,195.278656 
	C28.341555,195.097397 28.647879,195.268967 29.015844,195.707520 
z"/>
<path fill="#FFFDED" opacity="1.000000" stroke="none" 
	d="
M30.013058,196.701538 
	C29.675356,196.858231 29.274954,196.747452 28.950012,196.279572 
	C29.333765,196.093018 29.642061,196.263535 30.013058,196.701538 
z"/>
<path fill="#FFFDED" opacity="1.000000" stroke="none" 
	d="
M85.990524,206.305038 
	C86.321854,206.138382 86.716202,206.238037 87.043777,206.707855 
	C86.669182,206.909119 86.361366,206.740219 85.990524,206.305038 
z"/>
<path fill="#000000" opacity="1.000000" stroke="none" 
	d="
M84.163559,252.048019 
	C83.529526,254.762878 82.895493,257.477753 81.753586,260.702332 
	C80.803993,263.136292 80.362267,265.060547 79.920532,266.984802 
	C79.920540,266.984802 79.988991,266.995514 79.660088,267.057373 
	C79.194351,267.740692 79.057518,268.362091 78.920692,268.983521 
	C78.920692,268.983521 78.989349,268.995544 78.659645,269.057648 
	C78.193611,269.741180 78.057281,270.362640 77.920952,270.984070 
	C77.920952,270.984070 77.989357,270.996094 77.629120,271.089294 
	C76.771172,272.025787 76.273460,272.869080 75.775749,273.712402 
	C75.480911,273.642944 75.186081,273.573486 74.891243,273.504028 
	C74.891243,271.165588 74.891243,268.827148 74.891243,266.488708 
	C74.891243,266.488708 74.996712,266.487457 75.237930,266.252441 
	C75.680428,265.346283 75.881699,264.675171 76.082962,264.004028 
	C76.082970,264.004028 76.013611,264.002991 76.368622,263.909637 
	C76.843117,262.875458 76.962601,261.934662 77.082077,260.993835 
	C77.082085,260.993835 77.012070,261.003418 77.373108,260.914856 
	C79.426453,256.405273 81.118759,251.984238 82.811066,247.563202 
	C84.658226,235.404877 84.780113,235.137238 96.119255,218.593597 
	C99.123962,221.744064 102.055244,224.817551 105.319290,228.431595 
	C106.701378,229.744858 107.750710,230.517548 108.800041,231.290237 
	C108.800041,231.290237 108.845787,231.159515 108.603302,231.476074 
	C108.886925,232.213654 109.413025,232.634659 109.939125,233.055679 
	C109.939125,233.055679 109.998833,233.001221 110.024048,233.285339 
	C110.352676,233.736786 110.656075,233.904114 110.959480,234.071442 
	C110.959480,234.071442 110.998688,234.001190 111.074280,234.352402 
	C114.747894,237.489243 118.345901,240.274887 121.943909,243.060532 
	C121.943909,243.060532 122.000496,243.000610 122.072510,243.348694 
	C123.416168,244.488235 124.687805,245.279709 125.959442,246.071198 
	C125.959435,246.071198 125.998222,246.005325 126.066574,246.345139 
	C127.081345,247.149124 128.027756,247.613312 128.974182,248.077484 
	C128.974182,248.077484 128.994354,248.010101 129.062012,248.343567 
	C130.074982,249.142899 131.020309,249.608780 131.965622,250.074661 
	C131.965622,250.074661 131.998856,250.006012 132.067154,250.338562 
	C132.755600,250.808304 133.375763,250.945511 133.995911,251.082703 
	C133.995911,251.082703 133.995270,251.013580 134.060944,251.337311 
	C134.750519,251.801422 135.374451,251.941803 135.998367,252.082184 
	C135.998367,252.082184 135.994995,252.012360 136.058334,252.333130 
	C136.744385,252.796738 137.367081,252.939590 137.989792,253.082443 
	C137.989792,253.082443 137.994095,253.013382 138.110352,253.384644 
	C141.322327,254.441544 144.418030,255.127197 147.513748,255.812866 
	C154.973785,254.070816 162.419647,252.265152 169.897125,250.601456 
	C181.503021,248.019241 193.130386,245.533401 204.748764,243.007309 
	C212.437119,241.335693 220.125702,239.665115 228.557907,237.943420 
	C237.945221,235.272751 246.555695,232.533051 255.257843,230.124634 
	C257.210419,229.584229 259.493378,230.103165 261.607391,230.308273 
	C266.082794,230.742462 270.547089,231.291336 275.433411,231.894470 
	C279.787598,232.653915 283.713043,233.391708 287.663879,233.950119 
	C292.607483,234.648849 297.571899,235.200134 302.527344,235.815079 
	C304.050323,236.209091 305.573303,236.603119 307.670227,237.376968 
	C313.816101,240.194885 319.388031,242.632980 324.959961,245.071075 
	C324.959961,245.071075 324.998718,245.005157 325.060974,245.334091 
	C325.732544,245.811798 326.341858,245.960556 326.951202,246.109329 
	C332.963654,249.995605 328.711578,254.708542 327.627380,259.673828 
	C325.498688,263.797974 323.783508,267.405151 321.976044,270.965485 
	C320.112946,274.635284 317.210632,276.453247 312.990326,277.131470 
	C308.856842,277.795746 304.911987,279.633911 300.554626,281.084442 
	C297.918243,284.153229 294.958069,285.275024 291.191589,285.031006 
	C283.633392,284.541351 276.056488,284.346527 268.490692,283.963104 
	C266.878998,283.881409 265.285309,283.485504 263.677216,283.283295 
	C252.230820,281.843719 240.817612,279.784424 229.326202,279.152710 
	C216.217407,278.432068 203.001755,279.597351 189.900787,278.809082 
	C177.779129,278.079681 165.762100,275.727631 153.671967,274.322754 
	C143.156586,273.100922 132.603439,272.204071 122.066971,271.163635 
	C122.066971,271.163635 121.646164,270.995209 121.232986,270.647644 
	C119.125694,269.862152 117.442810,269.373505 115.735466,268.995239 
	C108.786278,267.455505 109.153740,267.692047 107.913429,261.421936 
	C106.869453,256.144379 104.882866,251.058380 103.446190,245.850983 
	C102.864388,243.742157 102.748215,241.507736 102.215050,239.381897 
	C101.585190,236.870529 100.733406,234.414825 99.978592,231.582611 
	C99.666260,230.463531 99.353165,229.696793 99.040070,228.930069 
	C99.040070,228.930069 99.007072,228.993973 98.910568,228.625092 
	C96.288185,226.288788 93.920296,225.841293 91.924393,228.972397 
	C91.924393,228.972397 91.991028,228.992340 91.634399,229.079437 
	C88.906357,236.793701 86.534958,244.420853 84.163559,252.048019 
z"/>
<path fill="#044CAB" opacity="1.000000" stroke="none" 
	d="
M395.250732,333.248962 
	C401.149445,331.475891 406.661713,329.812744 413.448334,327.765106 
	C415.132477,337.185913 417.998322,346.066101 418.049255,354.962341 
	C418.161774,374.629669 400.150177,390.320007 381.319946,393.038727 
	C356.113739,396.677979 333.768829,379.671082 328.829773,353.564880 
	C322.741516,321.384308 345.858521,295.429962 378.505554,297.890411 
	C385.374542,298.408081 391.725067,300.591888 397.693817,304.883942 
	C394.856293,310.938049 392.136078,316.741760 389.375519,322.631592 
	C385.958405,320.925171 383.029297,319.022827 379.823334,317.940765 
	C368.478363,314.111420 356.783478,319.923035 352.280029,331.362305 
	C345.289520,349.119019 357.041443,371.391998 374.745300,373.542114 
	C387.969299,375.148163 400.988983,362.570801 396.532074,350.019379 
	C393.307007,351.002197 390.047638,352.007294 386.780823,352.987640 
	C383.457581,353.984985 380.126984,354.957947 376.438110,356.048492 
	C374.855743,351.053650 373.319763,346.205200 371.577423,340.705322 
	C379.523346,338.198578 387.193817,335.778717 395.250732,333.248962 
z"/>
<path fill="#044CAB" opacity="1.000000" stroke="none" 
	d="
M139.617462,130.409668 
	C147.543503,128.354950 155.051376,128.116547 163.039734,130.588608 
	C162.064224,137.030640 161.110870,143.326340 160.116608,149.892136 
	C152.790558,147.179916 146.043640,146.787811 139.446442,150.362625 
	C130.495926,155.212662 126.857574,164.117569 128.961716,176.084885 
	C131.006378,187.713776 141.487701,198.483246 153.060226,200.657272 
	C161.358215,202.216125 168.248703,199.464371 173.378494,192.917343 
	C177.647217,187.469284 179.060318,181.329132 175.903488,174.717239 
	C175.628387,174.141052 175.146805,173.663452 174.505386,172.792999 
	C168.930542,176.521286 163.452454,180.184875 157.646255,184.067886 
	C154.707245,179.734024 151.939880,175.653275 148.853622,171.102264 
	C160.243637,163.394577 171.466995,155.799667 183.054260,147.958496 
	C189.056946,157.262161 196.186523,165.257614 197.189774,176.860886 
	C199.250153,200.691101 173.416367,228.913712 141.410675,219.138992 
	C110.271919,209.629013 96.528069,170.228683 116.270531,145.804550 
	C122.295082,138.351349 130.227249,133.601929 139.617462,130.409668 
z"/>
<path fill="#044CAB" opacity="1.000000" stroke="none" 
	d="
M350.760071,206.213928 
	C347.954773,204.108627 345.437347,202.218307 342.321381,199.878555 
	C360.006256,176.068680 377.592377,152.391769 395.638000,128.096176 
	C406.409943,136.930649 418.971497,143.116913 427.437744,154.317200 
	C432.080505,160.459259 433.204987,167.323441 429.462372,174.448593 
	C425.483490,182.023605 420.110535,187.814270 410.858154,188.361816 
	C409.721588,188.429077 408.577576,188.370987 407.207245,188.370987 
	C407.402191,189.053940 407.419556,189.541550 407.654602,189.876328 
	C415.011444,200.354767 414.984558,208.648132 407.537628,218.043396 
	C400.177490,227.329178 389.479736,230.413513 378.599243,225.147156 
	C371.796631,221.854584 365.749603,216.979111 359.437531,212.704605 
	C356.549042,210.748520 353.838959,208.528961 350.760071,206.213928 
M373.960846,191.467728 
	C372.033691,194.090775 370.106506,196.713821 367.906342,199.708420 
	C371.842285,202.232620 375.164703,204.773331 378.836304,206.619720 
	C384.041901,209.237534 388.184723,208.152069 391.209015,204.026596 
	C394.486359,199.555923 394.543243,195.085083 390.663177,190.911697 
	C387.786407,187.817490 384.270020,185.318024 380.806854,182.355423 
	C378.362396,185.600983 376.371765,188.243988 373.960846,191.467728 
M409.681793,168.853195 
	C412.496582,162.393356 410.582977,158.142334 402.432251,153.175217 
	C398.731781,158.145508 395.015442,163.137100 391.322479,168.097305 
	C399.059387,174.801132 403.751495,175.073044 409.681793,168.853195 
z"/>
<path fill="#044CAB" opacity="1.000000" stroke="none" 
	d="
M251.050415,329.986938 
	C250.830765,325.719727 250.629547,321.921539 250.402985,317.644531 
	C257.413818,317.173401 264.153198,316.720490 271.311310,316.239441 
	C271.905823,325.338165 272.410156,334.122437 273.070160,342.894989 
	C273.943481,354.503326 274.471039,366.166290 276.041870,377.683746 
	C277.134644,385.696533 282.423828,389.179504 290.126648,388.734802 
	C299.042877,388.220032 303.221405,384.747528 304.313873,376.402069 
	C304.763367,372.968353 304.665222,369.424774 304.467499,365.950989 
	C303.503387,349.011383 302.421356,332.078522 301.342133,314.509644 
	C308.371887,314.033691 315.067169,313.580414 322.380371,313.085297 
	C322.754456,319.626526 323.097168,325.739746 323.454926,331.852081 
	C324.321014,346.648682 325.622437,361.435211 325.957031,376.243652 
	C326.386292,395.239960 315.168488,407.337494 296.199493,408.870575 
	C290.430511,409.336823 284.420319,409.536285 278.788361,408.458740 
	C263.331024,405.501343 255.237122,395.107666 254.074326,377.822144 
	C253.012497,362.037445 252.066116,346.245026 251.050415,329.986938 
z"/>
<path fill="#044CAB" opacity="1.000000" stroke="none" 
	d="
M258.304810,114.939606 
	C262.678833,129.382858 259.436829,140.876373 246.086243,149.219681 
	C257.994385,159.593048 269.574890,169.681000 282.043365,180.542496 
	C273.328552,182.021347 265.624634,183.466736 257.866180,184.503616 
	C256.633118,184.668411 254.969742,183.196915 253.818924,182.140335 
	C245.359222,174.373535 236.986252,166.512360 228.566116,158.702286 
	C227.416199,157.635681 226.156479,156.687454 223.927338,154.837860 
	C225.926941,166.880569 227.700012,177.559021 229.624664,189.150345 
	C222.880264,190.262650 216.441605,191.324539 209.496765,192.469894 
	C204.668716,162.892975 199.919235,133.797318 194.976059,103.515076 
	C209.045853,101.906799 222.800415,99.536842 236.624542,99.016945 
	C246.935516,98.629173 254.439026,104.578461 258.304810,114.939606 
M218.591064,117.022026 
	C219.472244,124.615921 220.353424,132.209824 221.295975,140.332672 
	C225.229263,139.406586 228.336456,138.946106 231.251373,137.932602 
	C237.429626,135.784454 239.936340,131.357224 238.818512,125.216980 
	C237.684845,118.989677 233.962570,115.912094 227.306900,115.981194 
	C224.674011,116.008530 222.045670,116.475861 218.591064,117.022026 
z"/>
<path fill="#044CAB" opacity="1.000000" stroke="none" 
	d="
M333.959900,190.168839 
	C321.083832,197.318863 296.011383,191.140091 286.940430,180.741089 
	C281.442078,174.437698 278.708984,166.917877 280.378876,159.018997 
	C284.899902,137.633423 290.269287,116.427216 295.383087,94.807846 
	C302.336914,96.544662 308.557281,98.098282 315.394409,99.805946 
	C313.005859,109.419861 310.627747,118.692520 308.409393,128.003250 
	C306.103241,137.682510 303.367462,147.311279 301.901154,157.123764 
	C300.510559,166.429794 304.186737,170.408417 313.966156,172.635681 
	C320.980164,174.233109 326.533936,171.304214 328.956940,162.978394 
	C333.684814,146.732941 337.607025,130.253098 341.869141,113.871933 
	C342.443481,111.664513 343.054230,109.466576 343.738678,106.928352 
	C350.259827,108.564743 356.498779,110.130325 363.292175,111.835037 
	C361.785492,118.047462 360.390869,123.958946 358.915070,129.850098 
	C355.607513,143.053665 352.376221,156.278061 348.886627,169.433685 
	C346.604858,178.035767 342.392120,185.442612 333.959900,190.168839 
z"/>
<path fill="#044DAB" opacity="1.000000" stroke="none" 
	d="
M157.784973,330.050140 
	C161.966721,334.153290 166.373856,337.611237 169.739883,341.888489 
	C174.202454,347.559113 179.389938,353.372070 181.537109,360.006927 
	C186.330124,374.817596 173.776718,390.969940 157.013824,391.586639 
	C137.012543,392.322479 121.668877,383.016571 109.883934,366.546143 
	C115.164772,362.010712 120.185112,357.699036 125.160202,353.426208 
	C128.753967,357.345001 131.749710,361.730194 135.787231,364.698242 
	C139.786865,367.638397 144.691711,369.602600 149.474915,371.135773 
	C152.928894,372.242950 156.464508,371.000549 158.466843,367.428345 
	C160.432312,363.921875 159.711716,360.622009 157.179855,357.765411 
	C154.424057,354.656097 151.448288,351.742035 148.575638,348.735931 
	C145.932053,345.969513 143.053314,343.385284 140.707199,340.385284 
	C134.459381,332.396057 131.910126,323.598572 136.281174,313.834106 
	C140.722366,303.912933 148.937225,299.069153 159.354843,297.915497 
	C172.580750,296.450836 189.599106,305.188538 196.549454,316.350983 
	C192.410461,320.774811 188.339325,325.126099 184.289780,329.454315 
	C180.565643,326.402771 177.290848,323.375336 173.657303,320.867737 
	C171.383148,319.298309 168.658264,318.183136 165.975372,317.453064 
	C162.276337,316.446472 158.630371,316.764801 156.113220,320.290009 
	C153.546661,323.884369 155.250885,326.883789 157.784973,330.050140 
z"/>
<path fill="#044CAB" opacity="1.000000" stroke="none" 
	d="
M198.912323,323.821716 
	C199.556610,318.977478 200.170349,314.576172 200.851624,309.690582 
	C207.944519,310.615326 214.619781,311.485596 221.678329,312.405823 
	C218.328949,336.977905 215.038071,361.120789 211.691315,385.673645 
	C222.183868,387.159790 232.329956,388.596863 243.130661,390.126617 
	C242.354675,396.003967 241.604614,401.684967 240.723923,408.355408 
	C223.307739,405.992615 206.020370,403.647278 188.228363,401.233490 
	C191.830292,375.210266 195.356049,349.737457 198.912323,323.821716 
z"/>
<path fill="#FFFCE9" opacity="1.000000" stroke="none" 
	d="
M122.384308,271.384674 
	C132.603439,272.204071 143.156586,273.100922 153.671967,274.322754 
	C165.762100,275.727631 177.779129,278.079681 189.900787,278.809082 
	C203.001755,279.597351 216.217407,278.432068 229.326202,279.152710 
	C240.817612,279.784424 252.230820,281.843719 263.677216,283.283295 
	C265.285309,283.485504 266.878998,283.881409 268.490692,283.963104 
	C276.056488,284.346527 283.633392,284.541351 291.191589,285.031006 
	C294.958069,285.275024 297.918243,284.153229 300.871765,281.108521 
	C301.729675,281.024048 301.940857,281.043091 302.152008,281.062164 
	C297.957214,287.286469 295.536224,287.887238 288.076447,286.354309 
	C283.937073,285.503693 279.538300,285.943481 275.259705,285.734955 
	C270.563934,285.506104 265.756226,285.763947 261.198669,284.828583 
	C243.656693,281.228424 225.969376,280.253479 208.138428,280.975830 
	C184.394333,281.937744 161.202454,277.675629 137.977615,273.650208 
	C132.919464,272.773560 127.795372,272.277252 122.384308,271.384674 
z"/>
<path fill="#FFFCEA" opacity="1.000000" stroke="none" 
	d="
M99.977829,231.934982 
	C100.733406,234.414825 101.585190,236.870529 102.215050,239.381897 
	C102.748215,241.507736 102.864388,243.742157 103.446190,245.850983 
	C104.882866,251.058380 106.869453,256.144379 107.913429,261.421936 
	C109.153740,267.692047 108.786278,267.455505 115.735466,268.995239 
	C117.442810,269.373505 119.125694,269.862152 121.006516,270.656189 
	C118.719948,270.783966 116.249977,270.507660 113.772728,270.337433 
	C108.787659,269.994965 106.365044,267.332184 106.061127,262.374420 
	C105.930855,260.249420 105.466331,258.092224 104.808144,256.061646 
	C102.331459,248.420959 99.853058,240.796005 99.858185,232.298035 
	C99.931183,231.951752 99.977829,231.934982 99.977829,231.934982 
z"/>
<path fill="#FFFBDE" opacity="1.000000" stroke="none" 
	d="
M275.015930,231.793182 
	C270.547089,231.291336 266.082794,230.742462 261.607391,230.308273 
	C259.493378,230.103165 257.210419,229.584229 255.257843,230.124634 
	C246.555695,232.533051 237.945221,235.272751 228.977997,237.851791 
	C232.057297,236.217010 235.414246,234.511093 238.886581,233.086426 
	C240.212677,232.542343 241.993668,233.019974 243.242905,232.389297 
	C253.406982,227.258163 263.885529,228.767715 274.700928,231.084595 
	C274.995239,231.514313 275.015930,231.793182 275.015930,231.793182 
z"/>
<path fill="#FFFCEC" opacity="1.000000" stroke="none" 
	d="
M302.549988,281.032104 
	C301.940857,281.043091 301.729675,281.024048 301.201416,280.980957 
	C304.911987,279.633911 308.856842,277.795746 312.990326,277.131470 
	C317.210632,276.453247 320.112946,274.635284 321.976044,270.965485 
	C323.783508,267.405151 325.498688,263.797974 327.591553,260.063782 
	C327.759064,270.037354 321.241577,277.649292 311.618652,279.135437 
	C308.701874,279.585876 305.836761,280.370514 302.549988,281.032104 
z"/>
<path fill="#FFFBE4" opacity="1.000000" stroke="none" 
	d="
M275.433411,231.894470 
	C275.015930,231.793182 274.995239,231.514313 274.970215,231.377838 
	C281.623260,231.954193 288.312225,232.581055 294.973877,233.423828 
	C297.502441,233.743713 299.968109,234.560608 302.494904,235.483032 
	C297.571899,235.200134 292.607483,234.648849 287.663879,233.950119 
	C283.713043,233.391708 279.787598,232.653915 275.433411,231.894470 
z"/>
<path fill="#FFF9D5" opacity="1.000000" stroke="none" 
	d="
M74.589745,266.751831 
	C74.891243,268.827148 74.891243,271.165588 74.891243,273.504028 
	C75.186081,273.573486 75.480911,273.642944 75.775749,273.712402 
	C76.273460,272.869080 76.771172,272.025787 77.611824,271.059174 
	C76.892273,275.708221 75.829781,280.480560 74.640190,285.662842 
	C74.217224,286.069489 73.921623,286.058868 73.404190,286.036743 
	C73.359062,281.788239 73.502968,277.542267 73.727036,273.300476 
	C73.837929,271.201263 74.096497,269.109863 74.589745,266.751831 
z"/>
<path fill="#FFFCE9" opacity="1.000000" stroke="none" 
	d="
M84.485397,251.880997 
	C86.534958,244.420853 88.906357,236.793701 91.621735,229.047043 
	C89.579552,236.523026 87.193390,244.118500 84.485397,251.880997 
z"/>
<path fill="#FFFBE4" opacity="1.000000" stroke="none" 
	d="
M325.099823,244.729248 
	C319.388031,242.632980 313.816101,240.194885 308.073517,237.409393 
	C315.176941,235.965332 320.197662,240.201523 325.099823,244.729248 
z"/>
<path fill="#FFFCE9" opacity="1.000000" stroke="none" 
	d="
M122.185486,242.757355 
	C118.345901,240.274887 114.747894,237.489243 111.047729,234.382660 
	C114.772728,236.859192 118.599892,239.656693 122.185486,242.757355 
z"/>
<path fill="#FFFBE3" opacity="1.000000" stroke="none" 
	d="
M82.499542,247.559998 
	C81.118759,251.984238 79.426453,256.405273 77.382431,260.948944 
	C78.749825,256.566650 80.468918,252.061722 82.499542,247.559998 
z"/>
<path fill="#FFFCE9" opacity="1.000000" stroke="none" 
	d="
M147.484131,255.486115 
	C144.418030,255.127197 141.322327,254.441544 138.077667,253.395966 
	C141.103973,253.743820 144.279236,254.451599 147.484131,255.486115 
z"/>
<path fill="#FFFCE9" opacity="1.000000" stroke="none" 
	d="
M92.369347,229.074371 
	C93.920296,225.841293 96.288185,226.288788 98.943665,228.611023 
	C96.986938,229.036011 94.900620,229.106186 92.369347,229.074371 
z"/>
<path fill="#FFF9D5" opacity="1.000000" stroke="none" 
	d="
M80.314713,266.965820 
	C80.362267,265.060547 80.803993,263.136292 81.590683,261.059021 
	C81.526726,262.919647 81.117805,264.933228 80.314713,266.965820 
z"/>
<path fill="#FFFCE9" opacity="1.000000" stroke="none" 
	d="
M126.114990,245.711945 
	C124.687805,245.279709 123.416168,244.488235 122.042999,243.376984 
	C123.384491,243.822372 124.827507,244.587540 126.114990,245.711945 
z"/>
<path fill="#FFFCE9" opacity="1.000000" stroke="none" 
	d="
M108.860992,230.952805 
	C107.750710,230.517548 106.701378,229.744858 105.454575,228.784241 
	C106.478722,229.269363 107.700333,229.942368 108.860992,230.952805 
z"/>
<path fill="#FFFCE9" opacity="1.000000" stroke="none" 
	d="
M132.083710,249.704956 
	C131.020309,249.608780 130.074982,249.142899 129.030182,248.358505 
	C130.021057,248.471741 131.111435,248.903503 132.083710,249.704956 
z"/>
<path fill="#FFFCE9" opacity="1.000000" stroke="none" 
	d="
M129.049301,247.699768 
	C128.027756,247.613312 127.081345,247.149124 126.035255,246.367035 
	C126.998535,246.473419 128.061478,246.897720 129.049301,247.699768 
z"/>
<path fill="#FFFCE9" opacity="1.000000" stroke="none" 
	d="
M99.978592,231.582611 
	C99.977829,231.934982 99.931183,231.951752 99.912155,231.956726 
	C99.497261,231.215668 99.101387,230.469635 98.872787,229.326843 
	C99.353165,229.696793 99.666260,230.463531 99.978592,231.582611 
z"/>
<path fill="#FFFBE3" opacity="1.000000" stroke="none" 
	d="
M76.709793,261.095276 
	C76.962601,261.934662 76.843117,262.875458 76.386337,263.939453 
	C76.145187,263.107361 76.241348,262.152039 76.709793,261.095276 
z"/>
<path fill="#FFF9D5" opacity="1.000000" stroke="none" 
	d="
M78.291679,270.967834 
	C78.057281,270.362640 78.193611,269.741180 78.642197,269.027466 
	C78.857101,269.607330 78.759758,270.279480 78.291679,270.967834 
z"/>
<path fill="#FFF9D5" opacity="1.000000" stroke="none" 
	d="
M79.292572,268.969879 
	C79.057518,268.362091 79.194351,267.740692 79.643600,267.026917 
	C79.858826,267.608459 79.761642,268.282349 79.292572,268.969879 
z"/>
<path fill="#FFFBE3" opacity="1.000000" stroke="none" 
	d="
M75.681503,264.067993 
	C75.881699,264.675171 75.680428,265.346283 75.185699,266.243225 
	C75.021515,265.690033 75.150780,264.910980 75.681503,264.067993 
z"/>
<path fill="#FFFCE9" opacity="1.000000" stroke="none" 
	d="
M135.950623,251.720734 
	C135.374451,251.941803 134.750519,251.801422 134.028564,251.349411 
	C134.587967,251.144958 135.245438,251.252121 135.950623,251.720734 
z"/>
<path fill="#FFFCE9" opacity="1.000000" stroke="none" 
	d="
M133.954163,250.700439 
	C133.375763,250.945511 132.755600,250.808304 132.037476,250.362488 
	C132.597122,250.141953 133.254761,250.230057 133.954163,250.700439 
z"/>
<path fill="#FFFBE4" opacity="1.000000" stroke="none" 
	d="
M326.883606,245.750031 
	C326.341858,245.960556 325.732544,245.811798 325.029877,245.356354 
	C325.563019,245.163376 326.189514,245.277054 326.883606,245.750031 
z"/>
<path fill="#FFFCE9" opacity="1.000000" stroke="none" 
	d="
M137.978394,252.715958 
	C137.367081,252.939590 136.744385,252.796738 136.024506,252.341919 
	C136.607224,252.136459 137.287094,252.242966 137.978394,252.715958 
z"/>
<path fill="#FFFCE9" opacity="1.000000" stroke="none" 
	d="
M110.215363,232.745331 
	C109.413025,232.634659 108.886925,232.213654 108.534439,231.483353 
	C109.302574,231.594376 109.897087,232.014694 110.215363,232.745331 
z"/>
<path fill="#FFFCE9" opacity="1.000000" stroke="none" 
	d="
M111.112244,233.689606 
	C110.656075,233.904114 110.352676,233.736786 109.989250,233.305847 
	C110.374489,233.130768 110.819748,233.219269 111.112244,233.689606 
z"/>
<path fill="#F7D82D" opacity="1.000000" stroke="none" 
	d="
M374.170990,191.177353 
	C376.371765,188.243988 378.362396,185.600983 380.806854,182.355423 
	C384.270020,185.318024 387.786407,187.817490 390.663177,190.911697 
	C394.543243,195.085083 394.486359,199.555923 391.209015,204.026596 
	C388.184723,208.152069 384.041901,209.237534 378.836304,206.619720 
	C375.164703,204.773331 371.842285,202.232620 367.906342,199.708420 
	C370.106506,196.713821 372.033691,194.090775 374.170990,191.177353 
z"/>
<path fill="#F7D82D" opacity="1.000000" stroke="none" 
	d="
M409.421997,169.138855 
	C403.751495,175.073044 399.059387,174.801132 391.322479,168.097305 
	C395.015442,163.137100 398.731781,158.145508 402.432251,153.175217 
	C410.582977,158.142334 412.496582,162.393356 409.421997,169.138855 
z"/>
<path fill="#F8D92D" opacity="1.000000" stroke="none" 
	d="
M219.003174,116.882439 
	C222.045670,116.475861 224.674011,116.008530 227.306900,115.981194 
	C233.962570,115.912094 237.684845,118.989677 238.818512,125.216980 
	C239.936340,131.357224 237.429626,135.784454 231.251373,137.932602 
	C228.336456,138.946106 225.229263,139.406586 221.295975,140.332672 
	C220.353424,132.209824 219.472244,124.615921 219.003174,116.882439 
z"/>
</svg>